<?xml version="1.0" encoding="utf-8"?>
<COLLADA xmlns="http://www.collada.org/2005/11/COLLADASchema" version="1.4.1" xmlns:xsi="http://www.w3.org/2001/XMLSchema-instance">
  <asset>
    <contributor>
      <author>Blender User</author>
      <authoring_tool>Blender 4.0.2 commit date:2023-12-05, commit time:07:41, hash:9be62e85b727</authoring_tool>
    </contributor>
    <created>2026-02-21T20:03:56</created>
    <modified>2026-02-21T20:03:56</modified>
    <unit name="meter" meter="1"/>
    <up_axis>Z_UP</up_axis>
  </asset>
  <library_cameras>
    <camera id="Camera-camera" name="Camera">
      <optics>
        <technique_common>
          <perspective>
            <xfov sid="xfov">39.59775</xfov>
            <aspect_ratio>1.777778</aspect_ratio>
            <znear sid="znear">0.1</znear>
            <zfar sid="zfar">100</zfar>
          </perspective>
        </technique_common>
      </optics>
      <extra>
        <technique profile="blender">
          <shiftx sid="shiftx" type="float">0</shiftx>
          <shifty sid="shifty" type="float">0</shifty>
          <dof_distance sid="dof_distance" type="float">10</dof_distance>
        </technique>
      </extra>
    </camera>
  </library_cameras>
  <library_lights>
    <light id="Light-light" name="Light">
      <technique_common>
        <point>
          <color sid="color">1000 1000 1000</color>
          <constant_attenuation>1</constant_attenuation>
          <linear_attenuation>0</linear_attenuation>
          <quadratic_attenuation>0</quadratic_attenuation>
        </point>
      </technique_common>
      <extra>
        <technique profile="blender">
          <type sid="type" type="int">0</type>
          <flag sid="flag" type="int">0</flag>
          <mode sid="mode" type="int">1</mode>
          <red sid="red" type="float">1</red>
          <green sid="green" type="float">1</green>
          <blue sid="blue" type="float">1</blue>
          <shadow_r sid="blender_shadow_r" type="float">0</shadow_r>
          <shadow_g sid="blender_shadow_g" type="float">0</shadow_g>
          <shadow_b sid="blender_shadow_b" type="float">0</shadow_b>
          <energy sid="blender_energy" type="float">1000</energy>
          <spotsize sid="spotsize" type="float">75</spotsize>
          <spotblend sid="spotblend" type="float">0.15</spotblend>
          <clipsta sid="clipsta" type="float">0.04999995</clipsta>
          <clipend sid="clipend" type="float">30.002</clipend>
          <bias sid="bias" type="float">1</bias>
          <radius sid="radius" type="float">0.1</radius>
          <area_shape sid="area_shape" type="int">1</area_shape>
          <area_size sid="area_size" type="float">0.1</area_size>
          <area_sizey sid="area_sizey" type="float">0.1</area_sizey>
          <area_sizez sid="area_sizez" type="float">1</area_sizez>
        </technique>
      </extra>
    </light>
  </library_lights>
  <library_effects>
    <effect id="Material_003-effect">
      <profile_COMMON>
        <technique sid="common">
          <lambert>
            <emission>
              <color sid="emission">0 0 0 1</color>
            </emission>
            <diffuse>
              <color sid="diffuse">5.12365e-4 0.004764439 0.8000706 1</color>
            </diffuse>
            <index_of_refraction>
              <float sid="ior">1.45</float>
            </index_of_refraction>
          </lambert>
        </technique>
      </profile_COMMON>
    </effect>
  </library_effects>
  <library_images/>
  <library_materials>
    <material id="Material_003-material" name="Material.003">
      <instance_effect url="#Material_003-effect"/>
    </material>
  </library_materials>
  <library_geometries>
    <geometry id="batteries-mesh" name="batteries">
      <mesh>
        <source id="batteries-mesh-positions">
          <float_array id="batteries-mesh-positions-array" count="1920">0.06 0.023 -0.04099994 0.06 0.023 -0.01299995 -0.06 0.023 -0.04099994 -0.06 0.023 -0.01299995 0.06 0.02799999 -0.007999956 0.06 0.06199997 -0.007999956 -0.06 0.02799999 -0.007999956 -0.06 0.06199997 -0.007999956 0.06 0.06699997 -0.04099994 -0.06 0.06699997 -0.04099994 0.06 0.06699997 -0.01299995 -0.06 0.06699997 -0.01299995 0.06 0.02799999 -0.046 -0.06 0.02799999 -0.046 0.06 0.06199997 -0.046 -0.06 0.06199997 -0.046 -0.06499999 0.02799999 -0.04099994 -0.06499999 0.02799999 -0.01299995 -0.06499999 0.06199997 -0.04099994 -0.06499999 0.06199997 -0.01299995 0.06499999 0.06199997 -0.04099994 0.06499999 0.06199997 -0.01299995 0.06499999 0.02799999 -0.04099994 0.06499999 0.02799999 -0.01299995 -0.06154507 0.02799999 -0.008244693 -0.06154507 0.06199997 -0.008244693 -0.06191337 0.02799999 -0.008380591 -0.06191337 0.06199997 -0.008380591 -0.06293892 0.02799999 -0.008954882 -0.06293892 0.06199997 -0.008954882 -0.06353551 0.02799999 -0.009464442 -0.06353551 0.06199997 -0.009464442 -0.06404507 0.02799999 -0.01006102 -0.06404507 0.06199997 -0.01006102 -0.06461936 0.02799999 -0.01108658 -0.06461936 0.06199997 -0.01108658 -0.06475526 0.02799999 -0.01145488 -0.06475526 0.06199997 -0.01145488 -0.06191337 0.06661939 -0.01299995 -0.06293892 0.06604504 -0.01299995 -0.06279504 0.06584709 -0.01145488 -0.06353551 0.06553554 -0.01299995 -0.06404507 0.0649389 -0.01299995 -0.06384706 0.06479507 -0.01145488 -0.06461936 0.0639134 -0.01299995 -0.06475526 0.06354504 -0.01299995 -0.0645225 0.06346946 -0.01145488 -0.06146943 0.0624774 -0.008244693 -0.06 0.06354504 -0.008244693 -0.06047743 0.06346946 -0.008244693 -0.06 0.0639134 -0.008380591 -0.06090813 0.06479507 -0.008954882 -0.06384706 0.06325 -0.01006102 -0.06279504 0.06290817 -0.008954882 -0.06 0.0649389 -0.008954882 -0.06 0.06553554 -0.009464442 -0.06124997 0.06584709 -0.01006102 -0.06327253 0.0643776 -0.01006102 -0.06237763 0.06372743 -0.008954882 -0.06124997 0.06290817 -0.008244693 -0.06237763 0.06527251 -0.01006102 -0.06172746 0.0643776 -0.008954882 -0.06090813 0.06325 -0.008244693 -0.06154507 0.06675523 -0.01299995 -0.06146943 0.06652253 -0.01145488 -0.06 0.06604504 -0.01006102 -0.06 0.06661939 -0.01108658 -0.06 0.06675523 -0.01145488 -0.06 0.02338057 -0.01108658 -0.06 0.02395486 -0.01006102 -0.06154507 0.02415287 -0.01020491 -0.06 0.02446442 -0.009464442 -0.06 0.02506107 -0.008954882 -0.06154507 0.02520489 -0.009152889 -0.06 0.02608656 -0.008380591 -0.06 0.02645486 -0.008244693 -0.06154507 0.0265305 -0.008477449 -0.06475526 0.0275225 -0.01153051 -0.06475526 0.02645486 -0.01299995 -0.06475526 0.0265305 -0.01252251 -0.06461936 0.02608656 -0.01299995 -0.06404507 0.02520489 -0.01209181 -0.06293892 0.02674996 -0.009152889 -0.06404507 0.0270918 -0.01020491 -0.06404507 0.02506107 -0.01299995 -0.06353551 0.02446442 -0.01299995 -0.06293892 0.02415287 -0.01174998 -0.06293892 0.0256223 -0.009727418 -0.06404507 0.02627253 -0.01062232 -0.06475526 0.0270918 -0.01174998 -0.06293892 0.02472746 -0.01062232 -0.06404507 0.0256223 -0.01127249 -0.06475526 0.02674996 -0.01209181 -0.06 0.02324467 -0.01145488 -0.06154507 0.02347743 -0.01153051 -0.06293892 0.02395486 -0.01299995 -0.06191337 0.02338057 -0.01299995 -0.06154507 0.02324467 -0.01299995 0.06 0.06354504 -0.008244693 0.06 0.0639134 -0.008380591 0.06 0.0649389 -0.008954882 0.06 0.06553554 -0.009464442 0.06 0.06604504 -0.01006102 0.06 0.06661939 -0.01108658 0.06 0.06675523 -0.01145488 -0.06154507 0.06675523 -0.04099994 -0.06191337 0.06661939 -0.04099994 -0.06293892 0.06604504 -0.04099994 -0.06353551 0.06553554 -0.04099994 -0.06404507 0.0649389 -0.04099994 -0.06461936 0.0639134 -0.04099994 -0.06475526 0.06354504 -0.04099994 -0.06154507 0.06199997 -0.04575526 -0.06154507 0.02799999 -0.04575526 -0.06191337 0.06199997 -0.04561936 -0.06191337 0.02799999 -0.04561936 -0.06293892 0.06199997 -0.04504507 -0.06293892 0.02799999 -0.04504507 -0.06353551 0.06199997 -0.04453551 -0.06353551 0.02799999 -0.04453551 -0.06404507 0.06199997 -0.04393887 -0.06404507 0.02799999 -0.04393887 -0.06461936 0.06199997 -0.04291337 -0.06461936 0.02799999 -0.04291337 -0.06475526 0.06199997 -0.04254508 -0.06475526 0.02799999 -0.04254508 -0.06154507 0.02324467 -0.04099994 -0.06191337 0.02338057 -0.04099994 -0.06293892 0.02395486 -0.04099994 -0.06353551 0.02446442 -0.04099994 -0.06404507 0.02506107 -0.04099994 -0.06461936 0.02608656 -0.04099994 -0.06475526 0.02645486 -0.04099994 0.06 0.02324467 -0.01145488 0.06 0.02338057 -0.01108658 0.06 0.02395486 -0.01006102 0.06 0.02446442 -0.009464442 0.06 0.02506107 -0.008954882 0.06 0.02608656 -0.008380591 0.06 0.02645486 -0.008244693 0.06475526 0.02799999 -0.01145488 0.06475526 0.06199997 -0.01145488 0.06461936 0.02799999 -0.01108658 0.06461936 0.06199997 -0.01108658 0.06404507 0.02799999 -0.01006102 0.06404507 0.06199997 -0.01006102 0.06353551 0.02799999 -0.009464442 0.06353551 0.06199997 -0.009464442 0.06293892 0.02799999 -0.008954882 0.06293892 0.06199997 -0.008954882 0.06191337 0.02799999 -0.008380591 0.06191337 0.06199997 -0.008380591 0.06154507 0.02799999 -0.008244693 0.06154507 0.06199997 -0.008244693 0.06461936 0.0639134 -0.01299995 0.06404507 0.0649389 -0.01299995 0.06384706 0.06479507 -0.01145488 0.06353551 0.06553554 -0.01299995 0.06293892 0.06604504 -0.01299995 0.06279504 0.06584709 -0.01145488 0.06191337 0.06661939 -0.01299995 0.06154507 0.06675523 -0.01299995 0.06146943 0.06652253 -0.01145488 0.06047743 0.06346946 -0.008244693 0.06146943 0.0624774 -0.008244693 0.06279504 0.06290817 -0.008954882 0.06124997 0.06584709 -0.01006102 0.06090813 0.06479507 -0.008954882 0.06384706 0.06325 -0.01006102 0.06237763 0.06527251 -0.01006102 0.0617274 0.0643776 -0.008954882 0.06090813 0.06325 -0.008244693 0.06327253 0.0643776 -0.01006102 0.06237763 0.06372743 -0.008954882 0.06124997 0.06290817 -0.008244693 0.06475526 0.06354504 -0.01299995 0.0645225 0.06346946 -0.01145488 -0.06 0.06661939 -0.04291337 -0.06 0.06604504 -0.04393887 -0.06154507 0.06584709 -0.04379504 -0.06 0.06553554 -0.04453551 -0.06 0.0649389 -0.04504507 -0.06154507 0.06479507 -0.04484707 -0.06 0.0639134 -0.04561936 -0.06 0.06354504 -0.04575526 -0.06154507 0.06346946 -0.04552251 -0.06475526 0.0624774 -0.04246944 -0.06475526 0.06346946 -0.04147744 -0.06404507 0.06479507 -0.04190814 -0.06293892 0.06325 -0.04484707 -0.06404507 0.06290817 -0.04379504 -0.06293892 0.06584709 -0.04224997 -0.06293892 0.0643776 -0.04427254 -0.06404507 0.06372743 -0.04337763 -0.06475526 0.06290817 -0.04224997 -0.06293892 0.06527251 -0.04337763 -0.06404507 0.0643776 -0.04272741 -0.06475526 0.06325 -0.04190814 -0.06 0.06675523 -0.04254508 -0.06154507 0.06652253 -0.04246944 -0.06 0.02608656 -0.04561936 -0.06 0.02506107 -0.04504507 -0.06154507 0.02520489 -0.04484707 -0.06 0.02446442 -0.04453551 -0.06 0.02395486 -0.04393887 -0.06154507 0.02415287 -0.04379504 -0.06 0.02338057 -0.04291337 -0.06 0.02324467 -0.04254508 -0.06154507 0.02347743 -0.04246944 -0.06475526 0.0265305 -0.04147744 -0.06475526 0.0275225 -0.04246944 -0.06404507 0.0270918 -0.04379504 -0.06293892 0.02415287 -0.04224997 -0.06404507 0.02520489 -0.04190814 -0.06293892 0.02674996 -0.04484707 -0.06293892 0.02472746 -0.04337763 -0.06404507 0.0256223 -0.04272741 -0.06475526 0.02674996 -0.04190814 -0.06293892 0.0256223 -0.04427254 -0.06404507 0.02627253 -0.04337763 -0.06475526 0.0270918 -0.04224997 -0.06 0.02645486 -0.04575526 -0.06154507 0.0265305 -0.04552251 0.06191337 0.02338057 -0.01299995 0.06293892 0.02395486 -0.01299995 0.06279504 0.02415287 -0.01145488 0.06353551 0.02446442 -0.01299995 0.06404507 0.02506107 -0.01299995 0.06384706 0.02520489 -0.01145488 0.06461936 0.02608656 -0.01299995 0.06475526 0.02645486 -0.01299995 0.0645225 0.0265305 -0.01145488 0.06146943 0.0275225 -0.008244693 0.06047743 0.0265305 -0.008244693 0.06090813 0.02520489 -0.008954882 0.06384706 0.02674996 -0.01006102 0.06279504 0.0270918 -0.008954882 0.06124997 0.02415287 -0.01006102 0.06327253 0.0256223 -0.01006102 0.06237763 0.02627253 -0.008954882 0.06124997 0.0270918 -0.008244693 0.06237763 0.02472746 -0.01006102 0.0617274 0.0256223 -0.008954882 0.06090813 0.02674996 -0.008244693 0.06154507 0.02324467 -0.01299995 0.06146943 0.02347743 -0.01145488 0.06154507 0.06675523 -0.04099994 0.06191337 0.06661939 -0.04099994 0.06293892 0.06604504 -0.04099994 0.06353551 0.06553554 -0.04099994 0.06404507 0.0649389 -0.04099994 0.06461936 0.0639134 -0.04099994 0.06475526 0.06354504 -0.04099994 0.06 0.06675523 -0.04254508 0.06 0.06661939 -0.04291337 0.06 0.06604504 -0.04393887 0.06 0.06553554 -0.04453551 0.06 0.0649389 -0.04504507 0.06 0.0639134 -0.04561936 0.06 0.06354504 -0.04575526 0.06 0.02645486 -0.04575526 0.06 0.02608656 -0.04561936 0.06 0.02506107 -0.04504507 0.06 0.02446442 -0.04453551 0.06 0.02395486 -0.04393887 0.06 0.02338057 -0.04291337 0.06 0.02324467 -0.04254508 0.06475526 0.02645486 -0.04099994 0.06461936 0.02608656 -0.04099994 0.06404507 0.02506107 -0.04099994 0.06353551 0.02446442 -0.04099994 0.06293892 0.02395486 -0.04099994 0.06191337 0.02338057 -0.04099994 0.06154507 0.02324467 -0.04099994 0.06461936 0.06199997 -0.04291337 0.06404507 0.06199997 -0.04393887 0.06384706 0.06354504 -0.04379504 0.06353551 0.06199997 -0.04453551 0.06293892 0.06199997 -0.04504507 0.06279504 0.06354504 -0.04484707 0.06191337 0.06199997 -0.04561936 0.06154507 0.06199997 -0.04575526 0.06146943 0.06354504 -0.04552251 0.06047743 0.06675523 -0.04246944 0.06146943 0.06675523 -0.04147744 0.06279504 0.06604504 -0.04190814 0.06124997 0.0649389 -0.04484707 0.06090813 0.06604504 -0.04379504 0.06384706 0.0649389 -0.04224997 0.06237763 0.0649389 -0.04427254 0.0617274 0.06604504 -0.04337763 0.06090813 0.06675523 -0.04224997 0.06327253 0.0649389 -0.04337763 0.06237763 0.06604504 -0.04272741 0.06124997 0.06675523 -0.04190814 0.06475526 0.06199997 -0.04254508 0.0645225 0.06354504 -0.04246944 0.06191337 0.02799999 -0.04561936 0.06293892 0.02799999 -0.04504507 0.06279504 0.02645486 -0.04484707 0.06353551 0.02799999 -0.04453551 0.06404507 0.02799999 -0.04393887 0.06384706 0.02645486 -0.04379504 0.06461936 0.02799999 -0.04291337 0.06475526 0.02799999 -0.04254508 0.0645225 0.02645486 -0.04246944 0.06146943 0.02324467 -0.04147744 0.06047743 0.02324467 -0.04246944 0.06090813 0.02395486 -0.04379504 0.06384706 0.02506107 -0.04224997 0.06279504 0.02395486 -0.04190814 0.06124997 0.02506107 -0.04484707 0.06327253 0.02506107 -0.04337763 0.06237763 0.02395486 -0.04272741 0.06124997 0.02324467 -0.04190814 0.06237763 0.02506107 -0.04427254 0.0617274 0.02395486 -0.04337763 0.06090813 0.02324467 -0.04224997 0.06154507 0.02799999 -0.04575526 0.06146943 0.02645486 -0.04552251 -0.06 -0.023 -0.04099994 -0.06 -0.023 -0.01299995 0.06 -0.023 -0.04099994 0.06 -0.023 -0.01299995 -0.06 -0.02799999 -0.007999956 -0.06 -0.06199997 -0.007999956 0.06 -0.02799999 -0.007999956 0.06 -0.06199997 -0.007999956 -0.06 -0.06699997 -0.04099994 0.06 -0.06699997 -0.04099994 -0.06 -0.06699997 -0.01299995 0.06 -0.06699997 -0.01299995 -0.06 -0.02799999 -0.046 0.06 -0.02799999 -0.046 -0.06 -0.06199997 -0.046 0.06 -0.06199997 -0.046 0.06499999 -0.02799999 -0.04099994 0.06499999 -0.02799999 -0.01299995 0.06499999 -0.06199997 -0.04099994 0.06499999 -0.06199997 -0.01299995 -0.06499999 -0.06199997 -0.04099994 -0.06499999 -0.06199997 -0.01299995 -0.06499999 -0.02799999 -0.04099994 -0.06499999 -0.02799999 -0.01299995 0.06154507 -0.02799999 -0.008244693 0.06154507 -0.06199997 -0.008244693 0.06191337 -0.02799999 -0.008380591 0.06191337 -0.06199997 -0.008380591 0.06293892 -0.02799999 -0.008954882 0.06293892 -0.06199997 -0.008954882 0.06353551 -0.02799999 -0.009464442 0.06353551 -0.06199997 -0.009464442 0.06404507 -0.02799999 -0.01006102 0.06404507 -0.06199997 -0.01006102 0.06461936 -0.02799999 -0.01108658 0.06461936 -0.06199997 -0.01108658 0.06475526 -0.02799999 -0.01145488 0.06475526 -0.06199997 -0.01145488 0.06191337 -0.06661939 -0.01299995 0.06293892 -0.06604504 -0.01299995 0.06279504 -0.06584709 -0.01145488 0.06353551 -0.06553554 -0.01299995 0.06404507 -0.0649389 -0.01299995 0.06384706 -0.06479507 -0.01145488 0.06461936 -0.0639134 -0.01299995 0.06475526 -0.06354504 -0.01299995 0.0645225 -0.06346946 -0.01145488 0.06146943 -0.0624774 -0.008244693 0.06 -0.06354504 -0.008244693 0.06047743 -0.06346946 -0.008244693 0.06 -0.0639134 -0.008380591 0.06090813 -0.06479507 -0.008954882 0.06384706 -0.06325 -0.01006102 0.06279504 -0.06290817 -0.008954882 0.06 -0.0649389 -0.008954882 0.06 -0.06553554 -0.009464442 0.06124997 -0.06584709 -0.01006102 0.06327253 -0.0643776 -0.01006102 0.06237763 -0.06372743 -0.008954882 0.06124997 -0.06290817 -0.008244693 0.06237763 -0.06527251 -0.01006102 0.06172746 -0.0643776 -0.008954882 0.06090813 -0.06325 -0.008244693 0.06154507 -0.06675523 -0.01299995 0.06146943 -0.06652253 -0.01145488 0.06 -0.06604504 -0.01006102 0.06 -0.06661939 -0.01108658 0.06 -0.06675523 -0.01145488 0.06 -0.02338057 -0.01108658 0.06 -0.02395486 -0.01006102 0.06154507 -0.02415287 -0.01020491 0.06 -0.02446442 -0.009464442 0.06 -0.02506107 -0.008954882 0.06154507 -0.02520489 -0.009152889 0.06 -0.02608656 -0.008380591 0.06 -0.02645486 -0.008244693 0.06154507 -0.0265305 -0.008477449 0.06475526 -0.0275225 -0.01153051 0.06475526 -0.02645486 -0.01299995 0.06475526 -0.0265305 -0.01252251 0.06461936 -0.02608656 -0.01299995 0.06404507 -0.02520489 -0.01209181 0.06293892 -0.02674996 -0.009152889 0.06404507 -0.0270918 -0.01020491 0.06404507 -0.02506107 -0.01299995 0.06353551 -0.02446442 -0.01299995 0.06293892 -0.02415287 -0.01174998 0.06293892 -0.0256223 -0.009727418 0.06404507 -0.02627253 -0.01062232 0.06475526 -0.0270918 -0.01174998 0.06293892 -0.02472746 -0.01062232 0.06404507 -0.0256223 -0.01127249 0.06475526 -0.02674996 -0.01209181 0.06 -0.02324467 -0.01145488 0.06154507 -0.02347743 -0.01153051 0.06293892 -0.02395486 -0.01299995 0.06191337 -0.02338057 -0.01299995 0.06154507 -0.02324467 -0.01299995 -0.06 -0.06354504 -0.008244693 -0.06 -0.0639134 -0.008380591 -0.06 -0.0649389 -0.008954882 -0.06 -0.06553554 -0.009464442 -0.06 -0.06604504 -0.01006102 -0.06 -0.06661939 -0.01108658 -0.06 -0.06675523 -0.01145488 0.06154507 -0.06675523 -0.04099994 0.06191337 -0.06661939 -0.04099994 0.06293892 -0.06604504 -0.04099994 0.06353551 -0.06553554 -0.04099994 0.06404507 -0.0649389 -0.04099994 0.06461936 -0.0639134 -0.04099994 0.06475526 -0.06354504 -0.04099994 0.06154507 -0.06199997 -0.04575526 0.06154507 -0.02799999 -0.04575526 0.06191337 -0.06199997 -0.04561936 0.06191337 -0.02799999 -0.04561936 0.06293892 -0.06199997 -0.04504507 0.06293892 -0.02799999 -0.04504507 0.06353551 -0.06199997 -0.04453551 0.06353551 -0.02799999 -0.04453551 0.06404507 -0.06199997 -0.04393887 0.06404507 -0.02799999 -0.04393887 0.06461936 -0.06199997 -0.04291337 0.06461936 -0.02799999 -0.04291337 0.06475526 -0.06199997 -0.04254508 0.06475526 -0.02799999 -0.04254508 0.06154507 -0.02324467 -0.04099994 0.06191337 -0.02338057 -0.04099994 0.06293892 -0.02395486 -0.04099994 0.06353551 -0.02446442 -0.04099994 0.06404507 -0.02506107 -0.04099994 0.06461936 -0.02608656 -0.04099994 0.06475526 -0.02645486 -0.04099994 -0.06 -0.02324467 -0.01145488 -0.06 -0.02338057 -0.01108658 -0.06 -0.02395486 -0.01006102 -0.06 -0.02446442 -0.009464442 -0.06 -0.02506107 -0.008954882 -0.06 -0.02608656 -0.008380591 -0.06 -0.02645486 -0.008244693 -0.06475526 -0.02799999 -0.01145488 -0.06475526 -0.06199997 -0.01145488 -0.06461936 -0.02799999 -0.01108658 -0.06461936 -0.06199997 -0.01108658 -0.06404507 -0.02799999 -0.01006102 -0.06404507 -0.06199997 -0.01006102 -0.06353551 -0.02799999 -0.009464442 -0.06353551 -0.06199997 -0.009464442 -0.06293892 -0.02799999 -0.008954882 -0.06293892 -0.06199997 -0.008954882 -0.06191337 -0.02799999 -0.008380591 -0.06191337 -0.06199997 -0.008380591 -0.06154507 -0.02799999 -0.008244693 -0.06154507 -0.06199997 -0.008244693 -0.06461936 -0.0639134 -0.01299995 -0.06404507 -0.0649389 -0.01299995 -0.06384706 -0.06479507 -0.01145488 -0.06353551 -0.06553554 -0.01299995 -0.06293892 -0.06604504 -0.01299995 -0.06279504 -0.06584709 -0.01145488 -0.06191337 -0.06661939 -0.01299995 -0.06154507 -0.06675523 -0.01299995 -0.06146943 -0.06652253 -0.01145488 -0.06047743 -0.06346946 -0.008244693 -0.06146943 -0.0624774 -0.008244693 -0.06279504 -0.06290817 -0.008954882 -0.06124997 -0.06584709 -0.01006102 -0.06090813 -0.06479507 -0.008954882 -0.06384706 -0.06325 -0.01006102 -0.06237763 -0.06527251 -0.01006102 -0.0617274 -0.0643776 -0.008954882 -0.06090813 -0.06325 -0.008244693 -0.06327253 -0.0643776 -0.01006102 -0.06237763 -0.06372743 -0.008954882 -0.06124997 -0.06290817 -0.008244693 -0.06475526 -0.06354504 -0.01299995 -0.0645225 -0.06346946 -0.01145488 0.06 -0.06661939 -0.04291337 0.06 -0.06604504 -0.04393887 0.06154507 -0.06584709 -0.04379504 0.06 -0.06553554 -0.04453551 0.06 -0.0649389 -0.04504507 0.06154507 -0.06479507 -0.04484707 0.06 -0.0639134 -0.04561936 0.06 -0.06354504 -0.04575526 0.06154507 -0.06346946 -0.04552251 0.06475526 -0.0624774 -0.04246944 0.06475526 -0.06346946 -0.04147744 0.06404507 -0.06479507 -0.04190814 0.06293892 -0.06325 -0.04484707 0.06404507 -0.06290817 -0.04379504 0.06293892 -0.06584709 -0.04224997 0.06293892 -0.0643776 -0.04427254 0.06404507 -0.06372743 -0.04337763 0.06475526 -0.06290817 -0.04224997 0.06293892 -0.06527251 -0.04337763 0.06404507 -0.0643776 -0.04272741 0.06475526 -0.06325 -0.04190814 0.06 -0.06675523 -0.04254508 0.06154507 -0.06652253 -0.04246944 0.06 -0.02608656 -0.04561936 0.06 -0.02506107 -0.04504507 0.06154507 -0.02520489 -0.04484707 0.06 -0.02446442 -0.04453551 0.06 -0.02395486 -0.04393887 0.06154507 -0.02415287 -0.04379504 0.06 -0.02338057 -0.04291337 0.06 -0.02324467 -0.04254508 0.06154507 -0.02347743 -0.04246944 0.06475526 -0.0265305 -0.04147744 0.06475526 -0.0275225 -0.04246944 0.06404507 -0.0270918 -0.04379504 0.06293892 -0.02415287 -0.04224997 0.06404507 -0.02520489 -0.04190814 0.06293892 -0.02674996 -0.04484707 0.06293892 -0.02472746 -0.04337763 0.06404507 -0.0256223 -0.04272741 0.06475526 -0.02674996 -0.04190814 0.06293892 -0.0256223 -0.04427254 0.06404507 -0.02627253 -0.04337763 0.06475526 -0.0270918 -0.04224997 0.06 -0.02645486 -0.04575526 0.06154507 -0.0265305 -0.04552251 -0.06191337 -0.02338057 -0.01299995 -0.06293892 -0.02395486 -0.01299995 -0.06279504 -0.02415287 -0.01145488 -0.06353551 -0.02446442 -0.01299995 -0.06404507 -0.02506107 -0.01299995 -0.06384706 -0.02520489 -0.01145488 -0.06461936 -0.02608656 -0.01299995 -0.06475526 -0.02645486 -0.01299995 -0.0645225 -0.0265305 -0.01145488 -0.06146943 -0.0275225 -0.008244693 -0.06047743 -0.0265305 -0.008244693 -0.06090813 -0.02520489 -0.008954882 -0.06384706 -0.02674996 -0.01006102 -0.06279504 -0.0270918 -0.008954882 -0.06124997 -0.02415287 -0.01006102 -0.06327253 -0.0256223 -0.01006102 -0.06237763 -0.02627253 -0.008954882 -0.06124997 -0.0270918 -0.008244693 -0.06237763 -0.02472746 -0.01006102 -0.0617274 -0.0256223 -0.008954882 -0.06090813 -0.02674996 -0.008244693 -0.06154507 -0.02324467 -0.01299995 -0.06146943 -0.02347743 -0.01145488 -0.06154507 -0.06675523 -0.04099994 -0.06191337 -0.06661939 -0.04099994 -0.06293892 -0.06604504 -0.04099994 -0.06353551 -0.06553554 -0.04099994 -0.06404507 -0.0649389 -0.04099994 -0.06461936 -0.0639134 -0.04099994 -0.06475526 -0.06354504 -0.04099994 -0.06 -0.06675523 -0.04254508 -0.06 -0.06661939 -0.04291337 -0.06 -0.06604504 -0.04393887 -0.06 -0.06553554 -0.04453551 -0.06 -0.0649389 -0.04504507 -0.06 -0.0639134 -0.04561936 -0.06 -0.06354504 -0.04575526 -0.06 -0.02645486 -0.04575526 -0.06 -0.02608656 -0.04561936 -0.06 -0.02506107 -0.04504507 -0.06 -0.02446442 -0.04453551 -0.06 -0.02395486 -0.04393887 -0.06 -0.02338057 -0.04291337 -0.06 -0.02324467 -0.04254508 -0.06475526 -0.02645486 -0.04099994 -0.06461936 -0.02608656 -0.04099994 -0.06404507 -0.02506107 -0.04099994 -0.06353551 -0.02446442 -0.04099994 -0.06293892 -0.02395486 -0.04099994 -0.06191337 -0.02338057 -0.04099994 -0.06154507 -0.02324467 -0.04099994 -0.06461936 -0.06199997 -0.04291337 -0.06404507 -0.06199997 -0.04393887 -0.06384706 -0.06354504 -0.04379504 -0.06353551 -0.06199997 -0.04453551 -0.06293892 -0.06199997 -0.04504507 -0.06279504 -0.06354504 -0.04484707 -0.06191337 -0.06199997 -0.04561936 -0.06154507 -0.06199997 -0.04575526 -0.06146943 -0.06354504 -0.04552251 -0.06047743 -0.06675523 -0.04246944 -0.06146943 -0.06675523 -0.04147744 -0.06279504 -0.06604504 -0.04190814 -0.06124997 -0.0649389 -0.04484707 -0.06090813 -0.06604504 -0.04379504 -0.06384706 -0.0649389 -0.04224997 -0.06237763 -0.0649389 -0.04427254 -0.0617274 -0.06604504 -0.04337763 -0.06090813 -0.06675523 -0.04224997 -0.06327253 -0.0649389 -0.04337763 -0.06237763 -0.06604504 -0.04272741 -0.06124997 -0.06675523 -0.04190814 -0.06475526 -0.06199997 -0.04254508 -0.0645225 -0.06354504 -0.04246944 -0.06191337 -0.02799999 -0.04561936 -0.06293892 -0.02799999 -0.04504507 -0.06279504 -0.02645486 -0.04484707 -0.06353551 -0.02799999 -0.04453551 -0.06404507 -0.02799999 -0.04393887 -0.06384706 -0.02645486 -0.04379504 -0.06461936 -0.02799999 -0.04291337 -0.06475526 -0.02799999 -0.04254508 -0.0645225 -0.02645486 -0.04246944 -0.06146943 -0.02324467 -0.04147744 -0.06047743 -0.02324467 -0.04246944 -0.06090813 -0.02395486 -0.04379504 -0.06384706 -0.02506107 -0.04224997 -0.06279504 -0.02395486 -0.04190814 -0.06124997 -0.02506107 -0.04484707 -0.06327253 -0.02506107 -0.04337763 -0.06237763 -0.02395486 -0.04272741 -0.06124997 -0.02324467 -0.04190814 -0.06237763 -0.02506107 -0.04427254 -0.0617274 -0.02395486 -0.04337763 -0.06090813 -0.02324467 -0.04224997 -0.06154507 -0.02799999 -0.04575526 -0.06146943 -0.02645486 -0.04552251</float_array>
          <technique_common>
            <accessor source="#batteries-mesh-positions-array" count="640" stride="3">
              <param name="X" type="float"/>
              <param name="Y" type="float"/>
              <param name="Z" type="float"/>
            </accessor>
          </technique_common>
        </source>
        <source id="batteries-mesh-normals">
          <float_array id="batteries-mesh-normals-array" count="3570">0 -1 0 0 0 1 0 1 0 0 0 -1 -1 0 0 1 0 0 -0.1564329 0 0.9876887 -0.1564341 0 0.9876885 -0.3461233 0 0.938189 -0.4886186 0 0.8724976 -0.4886186 0 0.8724975 -0.6494452 0 0.7604084 -0.6494439 0 0.7604096 -0.7604098 0 0.6494436 -0.7604089 0 0.6494446 -0.8724933 0 0.4886263 -0.8724933 0 0.4886263 -0.9381926 0 0.3461137 -0.938192 0 0.3461152 -0.9876894 0 0.1564279 -0.9876894 0 0.1564279 -0.4826872 0.8619 0.1553756 -0.7511085 0.6414921 0.1559622 -0.9266576 0.3418621 0.1563205 -0.156384 0.0247696 0.9873858 -0.0247702 0.1563856 0.9873855 -0.05473971 0.3456077 0.9367812 -0.1461254 0.4298654 0.89099 -0.688629 0.1653268 0.706015 -0.6460401 0.1023173 0.756415 -0.452817 0.07171827 0.8887144 -0.4785667 0.2017657 0.8545552 -0.3456074 0.0547468 0.9367809 -0.07716 0.4871668 0.8698937 -0.1023214 0.6460362 0.7564176 -0.165328 0.6886294 0.7060143 -0.8758479 0.1708603 0.4513281 -0.8642784 0.136887 0.4840298 -0.7549526 0.1195747 0.6447857 -0.9758217 0.1545464 0.1545553 -0.9758214 0.1545568 0.1545474 -0.9280025 0.1469876 0.3423537 -0.8618971 0.482695 0.1553679 -0.8759357 0.4463096 0.1831519 -0.7959033 0.405532 0.4495352 -0.7959021 0.4055315 0.4495377 -0.6339293 0.3230013 0.7027118 -0.6339265 0.3230029 0.7027136 -0.4084929 0.2081411 0.8887131 -0.4085029 0.2081462 0.8887072 -0.141079 0.07188463 0.9873852 -0.6414924 0.7511082 0.1559616 -0.693867 0.6938678 0.192604 -0.6316306 0.631631 0.4495388 -0.6316289 0.6316372 0.4495325 -0.5030881 0.5030937 0.7027085 -0.5030867 0.5030835 0.7027168 -0.3241839 0.3241858 0.8887117 -0.3241869 0.324182 0.888712 -0.1119595 0.1119607 0.9873854 -0.3418643 0.9266577 0.1563148 -0.4463102 0.8759375 0.1831414 -0.405533 0.7959039 0.4495333 -0.4055327 0.7958959 0.4495474 -0.323003 0.633931 0.7027095 -0.3230013 0.6339277 0.7027133 -0.2081363 0.4084929 0.8887143 -0.2081423 0.408497 0.8887109 -0.07188224 0.1410766 0.9873857 -0.1195707 0.75495 0.6447893 -0.136888 0.8642861 0.4840159 -0.1708533 0.8758477 0.4513316 -0.1469757 0.9279928 0.3423852 -0.1545507 0.9758229 0.1545441 -0.1545575 0.9758195 0.1545579 -0.1553761 -0.8618981 0.4826905 -0.1559639 -0.6415004 0.7511008 -0.1563177 -0.3418672 0.9266563 -0.9873868 -0.02475517 0.1563802 -0.9873865 -0.1563801 0.02476733 -0.9367845 -0.3455992 0.05473744 -0.890989 -0.4298646 0.1461337 -0.7060135 -0.1653267 0.6886307 -0.7564181 -0.1023283 0.6460347 -0.8887109 -0.07172906 0.4528223 -0.8545431 -0.2018036 0.4785724 -0.9367856 -0.05474478 0.3455948 -0.869892 -0.4871699 0.07716047 -0.7564171 -0.6460365 0.102323 -0.7060146 -0.6886292 0.1653276 -0.4513277 -0.1708534 0.8758496 -0.4840189 -0.1368916 0.8642838 -0.6447855 -0.1195733 0.754953 -0.1545547 -0.1545532 0.9758208 -0.1545538 -0.1545562 0.9758204 -0.3423615 -0.146982 0.9280006 -0.1553772 -0.4826882 0.8618991 -0.1831482 -0.4463115 0.8759353 -0.4495344 -0.4055306 0.7959045 -0.4495358 -0.4055364 0.7959006 -0.7027154 -0.3230019 0.633925 -0.7027103 -0.3230127 0.6339251 -0.8887137 -0.2081286 0.4084979 -0.8887076 -0.2081432 0.4085036 -0.9873858 -0.07188946 0.1410716 -0.1559642 -0.7510983 0.6415033 -0.1926017 -0.6938661 0.6938692 -0.4495338 -0.6316357 0.6316295 -0.4495365 -0.6316316 0.6316316 -0.702713 -0.5030896 0.5030859 -0.7027134 -0.5030862 0.5030887 -0.8887106 -0.3241851 0.3241877 -0.8887072 -0.3241935 0.3241887 -0.9873867 -0.1119533 0.1119557 -0.1563166 -0.9266619 0.3418523 -0.1831491 -0.8759347 0.4463127 -0.449535 -0.7959042 0.4055304 -0.4495362 -0.7959023 0.4055327 -0.702714 -0.6339251 0.3230047 -0.7027126 -0.6339298 0.3229985 -0.8887092 -0.4085015 0.2081406 -0.8887129 -0.4084946 0.2081387 -0.9873865 -0.1410712 0.07188069 -0.6447829 -0.7549551 0.1195743 -0.4840201 -0.8642836 0.1368891 -0.4513275 -0.8758488 0.1708579 -0.3423592 -0.9280019 0.1469792 -0.1545541 -0.9758209 0.1545531 -0.1545552 -0.97582 0.154558 0 0.1564342 0.9876884 0 0.3461071 0.938195 0 0.34612 0.9381904 0 0.4886267 0.872493 0 0.4886211 0.8724962 0 0.6494445 0.7604091 0 0.6494396 0.7604132 0 0.7604113 0.6494418 0 0.8725007 0.4886131 0 0.8724894 0.4886332 0 0.9381955 0.3461057 0 0.9876881 0.1564364 -0.1564368 0.987688 0 -0.1564368 0.987688 0 -0.3461232 0.938189 0 -0.3461163 0.9381917 0 -0.4886179 0.8724979 0 -0.4886209 0.8724962 0 -0.6494411 0.7604119 0 -0.6494358 0.7604165 0 -0.7604147 0.6494379 0 -0.7604147 0.6494378 0 -0.8724903 0.4886316 0 -0.8724932 0.4886263 0 -0.9381948 0.3461079 0 -0.9381948 0.3461079 0 -0.9876887 0.1564321 0 -0.9876896 0.1564269 0 -0.1564309 0 -0.9876889 -0.1564351 0 -0.9876883 -0.3461195 0 -0.9381905 -0.488622 0 -0.8724957 -0.4886174 0 -0.8724982 -0.6494439 0 -0.7604096 -0.649449 0 -0.7604051 -0.7604061 0 -0.6494479 -0.7604098 0 -0.6494436 -0.8724933 0 -0.4886263 -0.8724933 0 -0.4886263 -0.938192 0 -0.3461152 -0.9381942 0 -0.3461095 -0.9876893 0 -0.1564286 -0.9876894 0 -0.1564279 -0.1564344 -0.9876884 0 -0.1564345 -0.9876884 0 -0.3461232 -0.9381892 0 -0.3461164 -0.9381916 0 -0.4886179 -0.8724979 0 -0.4886209 -0.8724962 0 -0.6494452 -0.7604085 0 -0.64944 -0.7604129 0 -0.7604117 -0.6494413 0 -0.7604117 -0.6494414 0 -0.872491 -0.4886303 0 -0.872494 -0.4886249 0 -0.9381942 -0.3461094 0 -0.9381942 -0.3461095 0 -0.9876888 -0.1564319 0 -0.9876896 -0.1564267 0 0 -0.9876881 0.1564364 0 -0.9876884 0.156434 0 -0.9381924 0.3461144 0 -0.8724964 0.4886206 0 -0.8724951 0.4886232 0 -0.7604064 0.6494475 0 -0.6494494 0.7604049 0 -0.6494469 0.760407 0 -0.4886211 0.8724962 0 -0.34612 0.9381904 0 -0.3461168 0.9381915 0 -0.1564338 0.9876886 0.9876887 0 0.1564326 0.9876887 0 0.1564326 0.9381921 0 0.3461152 0.9381926 0 0.3461138 0.872496 0 0.4886215 0.872496 0 0.4886214 0.7604042 0 0.6494502 0.7604053 0 0.6494491 0.6494486 0 0.7604056 0.64945 0 0.7604044 0.4886199 0 0.8724968 0.4886199 0 0.8724969 0.3461202 0 0.9381902 0.156434 0 0.9876885 0.1564329 0 0.9876886 0.8619025 0.4826824 0.1553769 0.6415036 0.7510981 0.1559644 0.3418561 0.9266603 0.1563172 0.02477037 0.156384 0.9873858 0.156384 0.0247696 0.9873858 0.3456013 0.05473613 0.9367838 0.4298565 0.1461172 0.8909957 0.1653262 0.6886319 0.7060124 0.1023214 0.6460362 0.7564176 0.07171893 0.4528205 0.8887125 0.2017871 0.4785645 0.8545514 0.05473989 0.3455992 0.9367843 0.4871675 0.07716119 0.8698932 0.6460443 0.1023281 0.7564097 0.6886331 0.1653193 0.7060128 0.1708542 0.8758465 0.4513334 0.1368868 0.8642886 0.4840118 0.1195703 0.7549501 0.6447894 0.1545563 0.97582 0.1545571 0.1545518 0.9758225 0.154545 0.1469757 0.9279928 0.3423852 0.4826874 0.8618999 0.1553756 0.4463126 0.875936 0.1831424 0.4055316 0.7959004 0.4495407 0.4055355 0.7959015 0.449535 0.3230037 0.6339249 0.7027147 0.3230034 0.6339215 0.7027179 0.2081382 0.4084966 0.8887121 0.2081397 0.4085016 0.8887094 0.07188153 0.1410776 0.9873856 0.751096 0.6415057 0.1559656 0.6938675 0.6938681 0.192601 0.6316376 0.6316251 0.4495372 0.6316276 0.6316363 0.4495356 0.5030887 0.5030868 0.702713 0.5030854 0.5030931 0.7027108 0.3241818 0.3241844 0.888713 0.3241803 0.3241851 0.8887133 0.1119583 0.1119632 0.9873852 0.9266653 0.3418411 0.1563203 0.8759332 0.4463148 0.183151 0.7959014 0.4055306 0.4495399 0.795903 0.4055325 0.4495351 0.6339293 0.3230013 0.7027118 0.6339244 0.3230121 0.7027113 0.4084972 0.2081429 0.8887107 0.4085032 0.208137 0.8887094 0.1410802 0.07188218 0.9873852 0.754949 0.1195741 0.64479 0.8642793 0.1368969 0.4840254 0.8758482 0.1708621 0.451327 0.9280034 0.1469815 0.3423539 0.9758201 0.1545566 0.1545558 0.9758205 0.1545581 0.1545521 -0.1553756 0.8619033 -0.4826815 -0.1559679 0.6414971 -0.7511029 -0.1563227 0.3418655 -0.926656 -0.9873867 0.0247662 -0.1563784 -0.9873864 0.1563797 -0.02476966 -0.9367841 0.3455991 -0.05474472 -0.8909878 0.429864 -0.1461434 -0.7060123 0.1653282 -0.6886315 -0.7564187 0.1023178 -0.6460356 -0.8887099 0.07172894 -0.4528243 -0.8545417 0.2018021 -0.4785754 -0.9367849 0.05474591 -0.3455969 -0.8698922 0.4871714 -0.07714712 -0.7564207 0.6460331 -0.1023174 -0.7060161 0.6886271 -0.1653303 -0.4513307 0.1708568 -0.8758474 -0.4840114 0.1368922 -0.8642879 -0.6447977 0.1195728 -0.7549425 -0.1545571 0.1545541 -0.9758203 -0.1545571 0.1545571 -0.9758199 -0.342347 0.1469808 -0.928006 -0.1553778 0.4826932 -0.8618963 -0.1831511 0.4463053 -0.8759379 -0.449536 0.4055327 -0.7959024 -0.4495343 0.4055339 -0.7959029 -0.7027153 0.3230012 -0.6339254 -0.7027069 0.3230112 -0.6339297 -0.8887121 0.2081382 -0.4084966 -0.8887115 0.2081243 -0.4085048 -0.9873858 0.0718888 -0.1410728 -0.1559614 0.7511012 -0.6415007 -0.1925957 0.6938654 -0.6938716 -0.4495369 0.6316346 -0.6316283 -0.4495369 0.6316297 -0.6316334 -0.7027155 0.5030934 -0.5030786 -0.7027112 0.5030865 -0.5030916 -0.8887116 0.3241848 -0.3241848 -0.888707 0.3241961 -0.3241864 -0.9873867 0.1119549 -0.1119549 -0.1563084 0.9266523 -0.3418821 -0.1831451 0.875934 -0.4463155 -0.4495363 0.7959036 -0.4055301 -0.449537 0.7958989 -0.4055383 -0.7027127 0.6339248 -0.3230082 -0.7027125 0.6339269 -0.3230047 -0.8887091 0.4085026 -0.2081387 -0.8887125 0.4084933 -0.2081429 -0.9873865 0.1410719 -0.07187986 -0.6447798 0.7549579 -0.1195729 -0.4840211 0.8642833 -0.1368866 -0.4513273 0.8758503 -0.1708509 -0.3423604 0.9280019 -0.146976 -0.154551 0.9758228 -0.154544 -0.1545579 0.9758195 -0.1545579 -0.1553772 -0.4826882 -0.8618991 -0.1559617 -0.7511 -0.6415022 -0.1563151 -0.9266625 -0.3418514 -0.9873862 -0.1563814 -0.02476751 -0.9873865 -0.02476608 -0.15638 -0.9367833 -0.05474579 -0.3456011 -0.8909888 -0.1461356 -0.4298645 -0.7060164 -0.6886273 -0.1653282 -0.7564204 -0.6460328 -0.1023225 -0.8887083 -0.4528286 -0.07172155 -0.8545469 -0.478569 -0.2017953 -0.9367833 -0.3456024 -0.05473798 -0.8698922 -0.07716202 -0.487169 -0.7564199 -0.102318 -0.6460341 -0.7060124 -0.1653271 -0.6886317 -0.4513279 -0.8758484 -0.1708586 -0.4840191 -0.8642841 -0.1368892 -0.6447839 -0.7549542 -0.1195741 -0.1545551 -0.9758204 -0.1545551 -0.1545553 -0.9758203 -0.1545561 -0.3423588 -0.928002 -0.1469792 -0.155372 -0.8618981 -0.4826916 -0.1831499 -0.8759345 -0.4463127 -0.4495357 -0.7959026 -0.4055327 -0.449539 -0.7959019 -0.4055306 -0.702713 -0.6339268 -0.3230037 -0.702713 -0.6339274 -0.3230025 -0.8887081 -0.4085045 -0.2081396 -0.8887149 -0.4084903 -0.2081389 -0.9873867 -0.1410705 -0.07188034 -0.1559671 -0.6415001 -0.7511004 -0.1925992 -0.6938664 -0.6938696 -0.4495342 -0.6316348 -0.6316301 -0.4495362 -0.6316299 -0.6316336 -0.7027116 -0.5030869 -0.5030906 -0.7027159 -0.5030895 -0.5030819 -0.8887103 -0.3241853 -0.3241879 -0.8887104 -0.3241841 -0.324189 -0.9873855 -0.1119634 -0.1119561 -0.1563189 -0.3418605 -0.9266585 -0.1831511 -0.4463088 -0.8759362 -0.4495304 -0.4055365 -0.7959037 -0.4495365 -0.4055304 -0.7959034 -0.7027125 -0.3230053 -0.6339263 -0.702715 -0.3230036 -0.6339246 -0.8887091 -0.2081387 -0.4085026 -0.8887125 -0.2081429 -0.4084933 -0.9873861 -0.07188886 -0.1410704 -0.644794 -0.119574 -0.7549456 -0.4840114 -0.1368922 -0.8642879 -0.4513269 -0.170855 -0.8758497 -0.3423671 -0.1469787 -0.927999 -0.15455 -0.1545555 -0.9758212 -0.1545575 -0.1545546 -0.9758201 0.4826871 -0.8618998 0.1553771 0.7510933 -0.6415089 0.1559657 0.9266649 -0.3418428 0.1563196 0.1563841 -0.0247696 0.9873857 0.02476811 -0.1563844 0.9873857 0.05473506 -0.3455993 0.9367845 0.1461231 -0.4298623 0.8909919 0.6886326 -0.1653189 0.7060133 0.6460419 -0.1023278 0.7564119 0.4528216 -0.07171893 0.8887121 0.4785693 -0.2017788 0.8545507 0.3456024 -0.05473554 0.9367834 0.07716017 -0.4871639 0.8698952 0.1023243 -0.6460386 0.7564153 0.1653246 -0.6886352 0.7060095 0.8758479 -0.1708598 0.4513284 0.864282 -0.136897 0.4840207 0.7549489 -0.1195738 0.6447902 0.9758209 -0.1545522 0.1545552 0.9758196 -0.1545625 0.1545528 0.928003 -0.1469805 0.3423554 0.8619028 -0.4826812 0.1553785 0.8759329 -0.4463151 0.1831514 0.7959021 -0.405538 0.4495318 0.7959035 -0.4055262 0.44954 0.6339299 -0.3230025 0.7027107 0.6339237 -0.3230123 0.7027119 0.4084979 -0.2081391 0.8887113 0.4084944 -0.2081428 0.8887121 0.1410778 -0.07188218 0.9873855 0.6415079 -0.7510939 0.1559665 0.6938668 -0.6938691 0.1925997 0.6316335 -0.6316284 0.4495383 0.6316342 -0.6316325 0.4495316 0.5030843 -0.5030879 0.7027153 0.5030881 -0.503083 0.7027161 0.3241854 -0.3241873 0.8887106 0.3241822 -0.3241834 0.8887133 0.1119597 -0.111961 0.9873853 0.3418563 -0.9266607 0.1563143 0.4463113 -0.8759349 0.1831515 0.4055311 -0.7959032 0.449536 0.4055331 -0.7959021 0.4495362 0.3230025 -0.6339252 0.702715 0.3230051 -0.6339224 0.7027163 0.2081411 -0.4085024 0.8887087 0.2081397 -0.4084917 0.8887139 0.07188153 -0.1410776 0.9873856 0.1195725 -0.7549463 0.6447935 0.1368878 -0.8642832 0.4840211 0.1708581 -0.8758482 0.4513286 0.1469814 -0.9280042 0.3423519 0.1545541 -0.9758209 0.1545531 0.1545552 -0.97582 0.154558 0.1564368 0.987688 0 0.1564368 0.987688 0 0.3461163 0.9381917 0 0.3461164 0.9381916 0 0.4886209 0.8724962 0 0.6494411 0.760412 0 0.6494463 0.7604075 0 0.7604147 0.6494378 0 0.7604042 0.6494501 0 0.8724902 0.4886316 0 0.8724992 0.4886155 0 0.9381948 0.3461079 0 0.9381879 0.3461265 0 0.9876879 0.1564373 0 0.9876896 0.1564269 0 0 0.987688 -0.1564366 0 0.9381961 -0.3461042 0 0.8724894 -0.4886332 0 0.8725007 -0.4886131 0 0.7604104 -0.649443 0 0.649441 -0.760412 0 0.6494458 -0.7604079 0 0.4886211 -0.8724962 0 0.4886267 -0.872493 0 0.3461158 -0.9381918 0 0.346103 -0.9381965 0 0.1564354 -0.9876883 0 -0.156435 -0.9876883 0 -0.3461126 -0.938193 0 -0.3461158 -0.9381918 0 -0.4886211 -0.8724962 0 -0.6494483 -0.7604058 0 -0.6494508 -0.7604037 0 -0.7604054 -0.6494487 0 -0.8724951 -0.4886232 0 -0.8724964 -0.4886206 0 -0.9381929 -0.3461129 0 -0.9876885 -0.1564342 0 -0.987688 -0.1564366 0.9876896 -0.1564267 0 0.987688 -0.1564371 0 0.9381873 -0.346128 0 0.9381942 -0.3461095 0 0.8725 -0.4886141 0 0.872491 -0.4886303 0 0.7604013 -0.6494536 0 0.7604117 -0.6494414 0 0.6494504 -0.7604041 0 0.6494452 -0.7604084 0 0.4886209 -0.8724962 0 0.3461163 -0.9381917 0 0.3461164 -0.9381916 0 0.1564344 -0.9876884 0 0.1564345 -0.9876884 0 0.8618995 0.1553844 -0.4826852 0.6415123 0.1559717 -0.751089 0.3418678 0.1563201 -0.9266555 0.02477204 0.9873849 -0.1563891 0.1563903 0.987385 -0.02476131 0.3455948 0.9367856 -0.05474478 0.4298596 0.8909949 -0.146113 0.1653226 0.706015 -0.6886301 0.1023228 0.7564182 -0.6460353 0.07171881 0.8887105 -0.4528246 0.2017823 0.8545461 -0.4785758 0.05473989 0.9367843 -0.3455992 0.4871667 0.8698942 -0.07715368 0.6460429 0.756411 -0.1023283 0.6886293 0.7060143 -0.1653288 0.1708614 0.4513278 -0.8758479 0.1368916 0.4840189 -0.8642838 0.1195721 0.6447862 -0.7549525 0.154558 0.1545565 -0.9758198 0.1545562 0.1545546 -0.9758203 0.1469789 0.342348 -0.9280059 0.4826822 0.1553768 -0.8619026 0.4463078 0.183148 -0.8759374 0.4055306 0.4495399 -0.7959014 0.4055344 0.4495335 -0.795903 0.3230046 0.7027109 -0.6339285 0.3230081 0.7027139 -0.6339235 0.2081376 0.8887104 -0.4085005 0.2081397 0.8887183 -0.4084822 0.0718832 0.9873853 -0.1410787 0.7511001 0.1559624 -0.6415019 0.6938667 0.1925977 -0.6938698 0.6316325 0.4495341 -0.6316325 0.6316292 0.4495431 -0.6316292 0.5030906 0.7027116 -0.5030869 0.50308 0.7027169 -0.5030902 0.324185 0.8887126 -0.3241824 0.3241856 0.8887146 -0.3241759 0.1119609 0.987385 -0.1119633 0.9266577 0.1563208 -0.3418617 0.8759343 0.1831514 -0.4463126 0.7959026 0.4495343 -0.4055343 0.7959046 0.4495355 -0.4055292 0.6339312 0.7027105 -0.3230004 0.6339192 0.7027198 -0.3230035 0.4084966 0.8887121 -0.2081382 0.4084928 0.8887121 -0.2081451 0.14108 0.9873847 -0.07188874 0.7549455 0.6447939 -0.1195758 0.8642854 0.4840155 -0.1368934 0.8758482 0.4513287 -0.1708581 0.9279999 0.3423616 -0.1469857 0.9758203 0.1545561 -0.1545553 0.9758205 0.1545581 -0.1545521 0.4826806 -0.1553753 -0.8619037 0.7510994 -0.1559607 -0.6415029 0.9266575 -0.1563192 -0.3418631 0.1563879 -0.9873852 -0.02477073 0.02476966 -0.9873853 -0.1563867 0.05474007 -0.9367874 -0.3455907 0.1461249 -0.8909872 -0.4298715 0.6886309 -0.7060137 -0.1653243 0.6460462 -0.7564089 -0.1023229 0.4528185 -0.8887136 -0.07171905 0.4785737 -0.8545437 -0.2017977 0.345595 -0.9367861 -0.05473512 0.07715743 -0.8698928 -0.4871688 0.1023225 -0.7564157 -0.6460382 0.1653179 -0.7060135 -0.6886328 0.8758482 -0.4513278 -0.1708602 0.8642868 -0.4840136 -0.1368916 0.7549427 -0.6447978 -0.1195728 0.9758197 -0.154563 -0.1545518 0.9758208 -0.154551 -0.1545564 0.9279995 -0.3423638 -0.1469827 0.8618984 -0.1553832 -0.4826875 0.875934 -0.1831513 -0.446313 0.7959038 -0.4495319 -0.4055349 0.7959026 -0.4495399 -0.4055282 0.6339263 -0.7027144 -0.3230016 0.633926 -0.7027121 -0.3230069 0.4084919 -0.888713 -0.2081435 0.408499 -0.8887143 -0.2081239 0.1410784 -0.9873856 -0.07187944 0.6415097 -0.1559696 -0.7510918 0.6938676 -0.1925995 -0.6938683 0.6316338 -0.4495392 -0.6316275 0.6316282 -0.4495358 -0.6316356 0.5030847 -0.7027174 -0.5030847 0.50309 -0.7027116 -0.5030875 0.3241836 -0.8887108 -0.3241887 0.324189 -0.8887104 -0.3241841 0.111962 -0.9873847 -0.1119644 0.3418664 -0.156318 -0.9266564 0.4463129 -0.1831471 -0.8759349 0.4055321 -0.4495385 -0.7959014 0.4055325 -0.4495351 -0.795903 0.3230038 -0.7027128 -0.6339269 0.3230081 -0.7027139 -0.6339235 0.2081384 -0.888713 -0.4084944 0.2081382 -0.8887134 -0.4084937 0.0718832 -0.9873853 -0.1410787 0.1195735 -0.6447923 -0.7549471 0.1368916 -0.4840189 -0.8642838 0.1708556 -0.4513269 -0.8758496 0.1469807 -0.342352 -0.9280042 0.1545504 -0.1545567 -0.9758209 0.1545575 -0.1545546 -0.9758201 0.1564308 0 -0.987689 0.1564351 0 -0.9876883 0.3461164 0 -0.9381917 0.4886232 0 -0.8724949 0.4886187 0 -0.8724974 0.6494486 0 -0.7604056 0.6494537 0 -0.7604012 0.7604014 0 -0.6494535 0.7604053 0 -0.6494491 0.872496 0 -0.4886215 0.872496 0 -0.4886214 0.9381921 0 -0.3461152 0.9381942 0 -0.3461095 0.9876886 0 -0.1564332 0.9876887 0 -0.1564326 0.1564329 0 0.9876887 0.1564341 0 0.9876885 0.3461233 0 0.938189 0.4886186 0 0.8724976 0.4886186 0 0.8724975 0.6494452 0 0.7604084 0.6494439 0 0.7604096 0.7604098 0 0.6494436 0.7604089 0 0.6494446 0.8724933 0 0.4886263 0.8724933 0 0.4886263 0.9381926 0 0.3461137 0.938192 0 0.3461152 0.9876894 0 0.1564279 0.9876894 0 0.1564279 0.4826872 -0.8619 0.1553756 0.7511085 -0.6414921 0.1559622 0.9266576 -0.3418621 0.1563205 0.156384 -0.0247696 0.9873858 0.0247702 -0.1563856 0.9873855 0.05473971 -0.3456077 0.9367812 0.1461254 -0.4298654 0.89099 0.688629 -0.1653268 0.706015 0.6460401 -0.1023173 0.756415 0.452817 -0.07171827 0.8887144 0.4785667 -0.2017657 0.8545552 0.3456074 -0.0547468 0.9367809 0.07716 -0.4871668 0.8698937 0.1023214 -0.6460362 0.7564176 0.165328 -0.6886294 0.7060143 0.8758479 -0.1708603 0.4513281 0.8642784 -0.136887 0.4840298 0.7549526 -0.1195747 0.6447857 0.9758217 -0.1545464 0.1545553 0.9758214 -0.1545568 0.1545474 0.9280025 -0.1469876 0.3423537 0.8618971 -0.482695 0.1553679 0.8759357 -0.4463096 0.1831519 0.7959033 -0.405532 0.4495352 0.7959021 -0.4055315 0.4495377 0.6339293 -0.3230013 0.7027118 0.6339265 -0.3230029 0.7027136 0.4084929 -0.2081411 0.8887131 0.4085029 -0.2081462 0.8887072 0.141079 -0.07188463 0.9873852 0.6414924 -0.7511082 0.1559616 0.693867 -0.6938678 0.192604 0.6316306 -0.631631 0.4495388 0.6316289 -0.6316372 0.4495325 0.5030881 -0.5030937 0.7027085 0.5030867 -0.5030835 0.7027168 0.3241839 -0.3241858 0.8887117 0.3241869 -0.324182 0.888712 0.1119595 -0.1119607 0.9873854 0.3418643 -0.9266577 0.1563148 0.4463102 -0.8759375 0.1831414 0.405533 -0.7959039 0.4495333 0.4055327 -0.7958959 0.4495474 0.323003 -0.633931 0.7027095 0.3230013 -0.6339277 0.7027133 0.2081363 -0.4084929 0.8887143 0.2081423 -0.408497 0.8887109 0.07188224 -0.1410766 0.9873857 0.1195707 -0.75495 0.6447893 0.136888 -0.8642861 0.4840159 0.1708533 -0.8758477 0.4513316 0.1469757 -0.9279928 0.3423852 0.1545507 -0.9758229 0.1545441 0.1545575 -0.9758195 0.1545579 0.1553761 0.8618981 0.4826905 0.1559639 0.6415004 0.7511008 0.1563177 0.3418672 0.9266563 0.9873868 0.02475517 0.1563802 0.9873865 0.1563801 0.02476733 0.9367845 0.3455992 0.05473744 0.890989 0.4298646 0.1461337 0.7060135 0.1653267 0.6886307 0.7564181 0.1023283 0.6460347 0.8887109 0.07172906 0.4528223 0.8545431 0.2018036 0.4785724 0.9367856 0.05474478 0.3455948 0.869892 0.4871699 0.07716047 0.7564171 0.6460365 0.102323 0.7060146 0.6886292 0.1653276 0.4513277 0.1708534 0.8758496 0.4840189 0.1368916 0.8642838 0.6447855 0.1195733 0.754953 0.1545547 0.1545532 0.9758208 0.1545538 0.1545562 0.9758204 0.3423615 0.146982 0.9280006 0.1553772 0.4826882 0.8618991 0.1831482 0.4463115 0.8759353 0.4495344 0.4055306 0.7959045 0.4495358 0.4055364 0.7959006 0.7027154 0.3230019 0.633925 0.7027103 0.3230127 0.6339251 0.8887137 0.2081286 0.4084979 0.8887076 0.2081432 0.4085036 0.9873858 0.07188946 0.1410716 0.1559642 0.7510983 0.6415033 0.1926017 0.6938661 0.6938692 0.4495338 0.6316357 0.6316295 0.4495365 0.6316316 0.6316316 0.702713 0.5030896 0.5030859 0.7027134 0.5030862 0.5030887 0.8887106 0.3241851 0.3241877 0.8887072 0.3241935 0.3241887 0.9873867 0.1119533 0.1119557 0.1563166 0.9266619 0.3418523 0.1831491 0.8759347 0.4463127 0.449535 0.7959042 0.4055304 0.4495362 0.7959023 0.4055327 0.702714 0.6339251 0.3230047 0.7027126 0.6339298 0.3229985 0.8887092 0.4085015 0.2081406 0.8887129 0.4084946 0.2081387 0.9873865 0.1410712 0.07188069 0.6447829 0.7549551 0.1195743 0.4840201 0.8642836 0.1368891 0.4513275 0.8758488 0.1708579 0.3423592 0.9280019 0.1469792 0.1545541 0.9758209 0.1545531 0.1545552 0.97582 0.154558 0 -0.1564342 0.9876884 0 -0.3461071 0.938195 0 -0.4886267 0.872493 0 -0.6494445 0.7604091 0 -0.6494396 0.7604132 0 -0.7604113 0.6494418 0 -0.8725007 0.4886131 0 -0.8724894 0.4886332 0 -0.9381955 0.3461057 0.1564368 -0.987688 0 0.1564368 -0.987688 0 0.3461232 -0.938189 0 0.4886179 -0.8724979 0 0.6494411 -0.7604119 0 0.6494358 -0.7604165 0 0.7604147 -0.6494379 0 0.7604147 -0.6494378 0 0.8724903 -0.4886316 0 0.8724932 -0.4886263 0 0.9381948 -0.3461079 0 0.9381948 -0.3461079 0 0.9876887 -0.1564321 0 0.9876896 -0.1564269 0 0.1564309 0 -0.9876889 0.1564351 0 -0.9876883 0.3461195 0 -0.9381905 0.488622 0 -0.8724957 0.4886174 0 -0.8724982 0.6494439 0 -0.7604096 0.649449 0 -0.7604051 0.7604061 0 -0.6494479 0.7604098 0 -0.6494436 0.8724933 0 -0.4886263 0.8724933 0 -0.4886263 0.938192 0 -0.3461152 0.9381942 0 -0.3461095 0.9876893 0 -0.1564286 0.9876894 0 -0.1564279 0.1564344 0.9876884 0 0.1564345 0.9876884 0 0.3461232 0.9381892 0 0.4886179 0.8724979 0 0.6494452 0.7604085 0 0.64944 0.7604129 0 0.7604117 0.6494413 0 0.7604117 0.6494414 0 0.872491 0.4886303 0 0.872494 0.4886249 0 0.9381942 0.3461094 0 0.9381942 0.3461095 0 0.9876888 0.1564319 0 0.9876896 0.1564267 0 0 0.9876884 0.156434 0 0.9381924 0.3461144 0 0.8724964 0.4886206 0 0.8724951 0.4886232 0 0.7604064 0.6494475 0 0.6494494 0.7604049 0 0.6494469 0.760407 0 0.3461168 0.9381915 0 0.1564338 0.9876886 -0.9876887 0 0.1564326 -0.9876887 0 0.1564326 -0.9381921 0 0.3461152 -0.9381926 0 0.3461138 -0.872496 0 0.4886215 -0.872496 0 0.4886214 -0.7604042 0 0.6494502 -0.7604053 0 0.6494491 -0.6494486 0 0.7604056 -0.64945 0 0.7604044 -0.4886199 0 0.8724968 -0.4886199 0 0.8724969 -0.3461202 0 0.9381902 -0.156434 0 0.9876885 -0.1564329 0 0.9876886 -0.8619025 -0.4826824 0.1553769 -0.6415036 -0.7510981 0.1559644 -0.3418561 -0.9266603 0.1563172 -0.02477037 -0.156384 0.9873858 -0.156384 -0.0247696 0.9873858 -0.3456013 -0.05473613 0.9367838 -0.4298565 -0.1461172 0.8909957 -0.1653262 -0.6886319 0.7060124 -0.1023214 -0.6460362 0.7564176 -0.07171893 -0.4528205 0.8887125 -0.2017871 -0.4785645 0.8545514 -0.05473989 -0.3455992 0.9367843 -0.4871675 -0.07716119 0.8698932 -0.6460443 -0.1023281 0.7564097 -0.6886331 -0.1653193 0.7060128 -0.1708542 -0.8758465 0.4513334 -0.1368868 -0.8642886 0.4840118 -0.1195703 -0.7549501 0.6447894 -0.1545563 -0.97582 0.1545571 -0.1545518 -0.9758225 0.154545 -0.1469757 -0.9279928 0.3423852 -0.4826874 -0.8618999 0.1553756 -0.4463126 -0.875936 0.1831424 -0.4055316 -0.7959004 0.4495407 -0.4055355 -0.7959015 0.449535 -0.3230037 -0.6339249 0.7027147 -0.3230034 -0.6339215 0.7027179 -0.2081382 -0.4084966 0.8887121 -0.2081397 -0.4085016 0.8887094 -0.07188153 -0.1410776 0.9873856 -0.751096 -0.6415057 0.1559656 -0.6938675 -0.6938681 0.192601 -0.6316376 -0.6316251 0.4495372 -0.6316276 -0.6316363 0.4495356 -0.5030887 -0.5030868 0.702713 -0.5030854 -0.5030931 0.7027108 -0.3241818 -0.3241844 0.888713 -0.3241803 -0.3241851 0.8887133 -0.1119583 -0.1119632 0.9873852 -0.9266653 -0.3418411 0.1563203 -0.8759332 -0.4463148 0.183151 -0.7959014 -0.4055306 0.4495399 -0.795903 -0.4055325 0.4495351 -0.6339293 -0.3230013 0.7027118 -0.6339244 -0.3230121 0.7027113 -0.4084972 -0.2081429 0.8887107 -0.4085032 -0.208137 0.8887094 -0.1410802 -0.07188218 0.9873852 -0.754949 -0.1195741 0.64479 -0.8642793 -0.1368969 0.4840254 -0.8758482 -0.1708621 0.451327 -0.9280034 -0.1469815 0.3423539 -0.9758201 -0.1545566 0.1545558 -0.9758205 -0.1545581 0.1545521 0.1553756 -0.8619033 -0.4826815 0.1559679 -0.6414971 -0.7511029 0.1563227 -0.3418655 -0.926656 0.9873867 -0.0247662 -0.1563784 0.9873864 -0.1563797 -0.02476966 0.9367841 -0.3455991 -0.05474472 0.8909878 -0.429864 -0.1461434 0.7060123 -0.1653282 -0.6886315 0.7564187 -0.1023178 -0.6460356 0.8887099 -0.07172894 -0.4528243 0.8545417 -0.2018021 -0.4785754 0.9367849 -0.05474591 -0.3455969 0.8698922 -0.4871714 -0.07714712 0.7564207 -0.6460331 -0.1023174 0.7060161 -0.6886271 -0.1653303 0.4513307 -0.1708568 -0.8758474 0.4840114 -0.1368922 -0.8642879 0.6447977 -0.1195728 -0.7549425 0.1545571 -0.1545541 -0.9758203 0.1545571 -0.1545571 -0.9758199 0.342347 -0.1469808 -0.928006 0.1553778 -0.4826932 -0.8618963 0.1831511 -0.4463053 -0.8759379 0.449536 -0.4055327 -0.7959024 0.4495343 -0.4055339 -0.7959029 0.7027153 -0.3230012 -0.6339254 0.7027069 -0.3230112 -0.6339297 0.8887121 -0.2081382 -0.4084966 0.8887115 -0.2081243 -0.4085048 0.9873858 -0.0718888 -0.1410728 0.1559614 -0.7511012 -0.6415007 0.1925957 -0.6938654 -0.6938716 0.4495369 -0.6316346 -0.6316283 0.4495369 -0.6316297 -0.6316334 0.7027155 -0.5030934 -0.5030786 0.7027112 -0.5030865 -0.5030916 0.8887116 -0.3241848 -0.3241848 0.888707 -0.3241961 -0.3241864 0.9873867 -0.1119549 -0.1119549 0.1563084 -0.9266523 -0.3418821 0.1831451 -0.875934 -0.4463155 0.4495363 -0.7959036 -0.4055301 0.449537 -0.7958989 -0.4055383 0.7027127 -0.6339248 -0.3230082 0.7027125 -0.6339269 -0.3230047 0.8887091 -0.4085026 -0.2081387 0.8887125 -0.4084933 -0.2081429 0.9873865 -0.1410719 -0.07187986 0.6447798 -0.7549579 -0.1195729 0.4840211 -0.8642833 -0.1368866 0.4513273 -0.8758503 -0.1708509 0.3423604 -0.9280019 -0.146976 0.154551 -0.9758228 -0.154544 0.1545579 -0.9758195 -0.1545579 0.1553772 0.4826882 -0.8618991 0.1559617 0.7511 -0.6415022 0.1563151 0.9266625 -0.3418514 0.9873862 0.1563814 -0.02476751 0.9873865 0.02476608 -0.15638 0.9367833 0.05474579 -0.3456011 0.8909888 0.1461356 -0.4298645 0.7060164 0.6886273 -0.1653282 0.7564204 0.6460328 -0.1023225 0.8887083 0.4528286 -0.07172155 0.8545469 0.478569 -0.2017953 0.9367833 0.3456024 -0.05473798 0.8698922 0.07716202 -0.487169 0.7564199 0.102318 -0.6460341 0.7060124 0.1653271 -0.6886317 0.4513279 0.8758484 -0.1708586 0.4840191 0.8642841 -0.1368892 0.6447839 0.7549542 -0.1195741 0.1545551 0.9758204 -0.1545551 0.1545553 0.9758203 -0.1545561 0.3423588 0.928002 -0.1469792 0.155372 0.8618981 -0.4826916 0.1831499 0.8759345 -0.4463127 0.4495357 0.7959026 -0.4055327 0.449539 0.7959019 -0.4055306 0.702713 0.6339268 -0.3230037 0.702713 0.6339274 -0.3230025 0.8887081 0.4085045 -0.2081396 0.8887149 0.4084903 -0.2081389 0.9873867 0.1410705 -0.07188034 0.1559671 0.6415001 -0.7511004 0.1925992 0.6938664 -0.6938696 0.4495342 0.6316348 -0.6316301 0.4495362 0.6316299 -0.6316336 0.7027116 0.5030869 -0.5030906 0.7027159 0.5030895 -0.5030819 0.8887103 0.3241853 -0.3241879 0.8887104 0.3241841 -0.324189 0.9873855 0.1119634 -0.1119561 0.1563189 0.3418605 -0.9266585 0.1831511 0.4463088 -0.8759362 0.4495304 0.4055365 -0.7959037 0.4495365 0.4055304 -0.7959034 0.7027125 0.3230053 -0.6339263 0.702715 0.3230036 -0.6339246 0.8887091 0.2081387 -0.4085026 0.8887125 0.2081429 -0.4084933 0.9873861 0.07188886 -0.1410704 0.644794 0.119574 -0.7549456 0.4840114 0.1368922 -0.8642879 0.4513269 0.170855 -0.8758497 0.3423671 0.1469787 -0.927999 0.15455 0.1545555 -0.9758212 0.1545575 0.1545546 -0.9758201 -0.4826871 0.8618998 0.1553771 -0.7510933 0.6415089 0.1559657 -0.9266649 0.3418428 0.1563196 -0.1563841 0.0247696 0.9873857 -0.02476811 0.1563844 0.9873857 -0.05473506 0.3455993 0.9367845 -0.1461231 0.4298623 0.8909919 -0.6886326 0.1653189 0.7060133 -0.6460419 0.1023278 0.7564119 -0.4528216 0.07171893 0.8887121 -0.4785693 0.2017788 0.8545507 -0.3456024 0.05473554 0.9367834 -0.07716017 0.4871639 0.8698952 -0.1023243 0.6460386 0.7564153 -0.1653246 0.6886352 0.7060095 -0.8758479 0.1708598 0.4513284 -0.864282 0.136897 0.4840207 -0.7549489 0.1195738 0.6447902 -0.9758209 0.1545522 0.1545552 -0.9758196 0.1545625 0.1545528 -0.928003 0.1469805 0.3423554 -0.8619028 0.4826812 0.1553785 -0.8759329 0.4463151 0.1831514 -0.7959021 0.405538 0.4495318 -0.7959035 0.4055262 0.44954 -0.6339299 0.3230025 0.7027107 -0.6339237 0.3230123 0.7027119 -0.4084979 0.2081391 0.8887113 -0.4084944 0.2081428 0.8887121 -0.1410778 0.07188218 0.9873855 -0.6415079 0.7510939 0.1559665 -0.6938668 0.6938691 0.1925997 -0.6316335 0.6316284 0.4495383 -0.6316342 0.6316325 0.4495316 -0.5030843 0.5030879 0.7027153 -0.5030881 0.503083 0.7027161 -0.3241854 0.3241873 0.8887106 -0.3241822 0.3241834 0.8887133 -0.1119597 0.111961 0.9873853 -0.3418563 0.9266607 0.1563143 -0.4463113 0.8759349 0.1831515 -0.4055311 0.7959032 0.449536 -0.4055331 0.7959021 0.4495362 -0.3230025 0.6339252 0.702715 -0.3230051 0.6339224 0.7027163 -0.2081411 0.4085024 0.8887087 -0.2081397 0.4084917 0.8887139 -0.07188153 0.1410776 0.9873856 -0.1195725 0.7549463 0.6447935 -0.1368878 0.8642832 0.4840211 -0.1708581 0.8758482 0.4513286 -0.1469814 0.9280042 0.3423519 -0.1545541 0.9758209 0.1545531 -0.1545552 0.97582 0.154558 -0.1564368 -0.987688 0 -0.1564368 -0.987688 0 -0.3461163 -0.9381917 0 -0.6494411 -0.760412 0 -0.6494463 -0.7604075 0 -0.7604147 -0.6494378 0 -0.7604042 -0.6494501 0 -0.8724902 -0.4886316 0 -0.8724992 -0.4886155 0 -0.9381948 -0.3461079 0 -0.9381879 -0.3461265 0 -0.9876879 -0.1564373 0 -0.9876896 -0.1564269 0 0 -0.9381961 -0.3461042 0 -0.8724894 -0.4886332 0 -0.8725007 -0.4886131 0 -0.7604104 -0.649443 0 -0.649441 -0.760412 0 -0.6494458 -0.7604079 0 -0.4886267 -0.872493 0 -0.346103 -0.9381965 0 -0.1564354 -0.9876883 0 0.156435 -0.9876883 0 0.3461126 -0.938193 0 0.6494483 -0.7604058 0 0.6494508 -0.7604037 0 0.7604054 -0.6494487 0 0.8724951 -0.4886232 0 0.8724964 -0.4886206 0 0.9381929 -0.3461129 0 0.9876885 -0.1564342 -0.9876896 0.1564267 0 -0.987688 0.1564371 0 -0.9381873 0.346128 0 -0.9381942 0.3461095 0 -0.8725 0.4886141 0 -0.872491 0.4886303 0 -0.7604013 0.6494536 0 -0.7604117 0.6494414 0 -0.6494504 0.7604041 0 -0.6494452 0.7604084 0 -0.3461164 0.9381916 0 -0.1564344 0.9876884 0 -0.1564345 0.9876884 0 -0.8618995 -0.1553844 -0.4826852 -0.6415123 -0.1559717 -0.751089 -0.3418678 -0.1563201 -0.9266555 -0.02477204 -0.9873849 -0.1563891 -0.1563903 -0.987385 -0.02476131 -0.3455948 -0.9367856 -0.05474478 -0.4298596 -0.8909949 -0.146113 -0.1653226 -0.706015 -0.6886301 -0.1023228 -0.7564182 -0.6460353 -0.07171881 -0.8887105 -0.4528246 -0.2017823 -0.8545461 -0.4785758 -0.05473989 -0.9367843 -0.3455992 -0.4871667 -0.8698942 -0.07715368 -0.6460429 -0.756411 -0.1023283 -0.6886293 -0.7060143 -0.1653288 -0.1708614 -0.4513278 -0.8758479 -0.1368916 -0.4840189 -0.8642838 -0.1195721 -0.6447862 -0.7549525 -0.154558 -0.1545565 -0.9758198 -0.1545562 -0.1545546 -0.9758203 -0.1469789 -0.342348 -0.9280059 -0.4826822 -0.1553768 -0.8619026 -0.4463078 -0.183148 -0.8759374 -0.4055306 -0.4495399 -0.7959014 -0.4055344 -0.4495335 -0.795903 -0.3230046 -0.7027109 -0.6339285 -0.3230081 -0.7027139 -0.6339235 -0.2081376 -0.8887104 -0.4085005 -0.2081397 -0.8887183 -0.4084822 -0.0718832 -0.9873853 -0.1410787 -0.7511001 -0.1559624 -0.6415019 -0.6938667 -0.1925977 -0.6938698 -0.6316325 -0.4495341 -0.6316325 -0.6316292 -0.4495431 -0.6316292 -0.5030906 -0.7027116 -0.5030869 -0.50308 -0.7027169 -0.5030902 -0.324185 -0.8887126 -0.3241824 -0.3241856 -0.8887146 -0.3241759 -0.1119609 -0.987385 -0.1119633 -0.9266577 -0.1563208 -0.3418617 -0.8759343 -0.1831514 -0.4463126 -0.7959026 -0.4495343 -0.4055343 -0.7959046 -0.4495355 -0.4055292 -0.6339312 -0.7027105 -0.3230004 -0.6339192 -0.7027198 -0.3230035 -0.4084966 -0.8887121 -0.2081382 -0.4084928 -0.8887121 -0.2081451 -0.14108 -0.9873847 -0.07188874 -0.7549455 -0.6447939 -0.1195758 -0.8642854 -0.4840155 -0.1368934 -0.8758482 -0.4513287 -0.1708581 -0.9279999 -0.3423616 -0.1469857 -0.9758203 -0.1545561 -0.1545553 -0.9758205 -0.1545581 -0.1545521 -0.4826806 0.1553753 -0.8619037 -0.7510994 0.1559607 -0.6415029 -0.9266575 0.1563192 -0.3418631 -0.1563879 0.9873852 -0.02477073 -0.02476966 0.9873853 -0.1563867 -0.05474007 0.9367874 -0.3455907 -0.1461249 0.8909872 -0.4298715 -0.6886309 0.7060137 -0.1653243 -0.6460462 0.7564089 -0.1023229 -0.4528185 0.8887136 -0.07171905 -0.4785737 0.8545437 -0.2017977 -0.345595 0.9367861 -0.05473512 -0.07715743 0.8698928 -0.4871688 -0.1023225 0.7564157 -0.6460382 -0.1653179 0.7060135 -0.6886328 -0.8758482 0.4513278 -0.1708602 -0.8642868 0.4840136 -0.1368916 -0.7549427 0.6447978 -0.1195728 -0.9758197 0.154563 -0.1545518 -0.9758208 0.154551 -0.1545564 -0.9279995 0.3423638 -0.1469827 -0.8618984 0.1553832 -0.4826875 -0.875934 0.1831513 -0.446313 -0.7959038 0.4495319 -0.4055349 -0.7959026 0.4495399 -0.4055282 -0.6339263 0.7027144 -0.3230016 -0.633926 0.7027121 -0.3230069 -0.4084919 0.888713 -0.2081435 -0.408499 0.8887143 -0.2081239 -0.1410784 0.9873856 -0.07187944 -0.6415097 0.1559696 -0.7510918 -0.6938676 0.1925995 -0.6938683 -0.6316338 0.4495392 -0.6316275 -0.6316282 0.4495358 -0.6316356 -0.5030847 0.7027174 -0.5030847 -0.50309 0.7027116 -0.5030875 -0.3241836 0.8887108 -0.3241887 -0.324189 0.8887104 -0.3241841 -0.111962 0.9873847 -0.1119644 -0.3418664 0.156318 -0.9266564 -0.4463129 0.1831471 -0.8759349 -0.4055321 0.4495385 -0.7959014 -0.4055325 0.4495351 -0.795903 -0.3230038 0.7027128 -0.6339269 -0.3230081 0.7027139 -0.6339235 -0.2081384 0.888713 -0.4084944 -0.2081382 0.8887134 -0.4084937 -0.0718832 0.9873853 -0.1410787 -0.1195735 0.6447923 -0.7549471 -0.1368916 0.4840189 -0.8642838 -0.1708556 0.4513269 -0.8758496 -0.1469807 0.342352 -0.9280042 -0.1545504 0.1545567 -0.9758209 -0.1545575 0.1545546 -0.9758201 -0.1564308 0 -0.987689 -0.1564351 0 -0.9876883 -0.3461164 0 -0.9381917 -0.4886232 0 -0.8724949 -0.4886187 0 -0.8724974 -0.6494486 0 -0.7604056 -0.6494537 0 -0.7604012 -0.7604014 0 -0.6494535 -0.7604053 0 -0.6494491 -0.872496 0 -0.4886215 -0.872496 0 -0.4886214 -0.9381921 0 -0.3461152 -0.9381942 0 -0.3461095 -0.9876886 0 -0.1564332 -0.9876887 0 -0.1564326</float_array>
          <technique_common>
            <accessor source="#batteries-mesh-normals-array" count="1190" stride="3">
              <param name="X" type="float"/>
              <param name="Y" type="float"/>
              <param name="Z" type="float"/>
            </accessor>
          </technique_common>
        </source>
        <vertices id="batteries-mesh-vertices">
          <input semantic="POSITION" source="#batteries-mesh-positions"/>
        </vertices>
        <triangles material="Material_003-material" count="1272">
          <input semantic="VERTEX" source="#batteries-mesh-vertices" offset="0"/>
          <input semantic="NORMAL" source="#batteries-mesh-normals" offset="1"/>
          <p>0 0 1 0 2 0 2 0 1 0 3 0 4 1 5 1 6 1 6 1 5 1 7 1 8 2 9 2 10 2 10 2 9 2 11 2 12 3 13 3 14 3 14 3 13 3 15 3 16 4 17 4 18 4 18 4 17 4 19 4 20 5 21 5 22 5 22 5 21 5 23 5 6 6 7 6 24 6 24 7 7 7 25 7 24 8 25 8 26 8 26 8 25 8 27 8 26 9 27 9 28 9 28 10 27 10 29 10 28 11 29 11 30 11 30 12 29 12 31 12 30 13 31 13 32 13 32 14 31 14 33 14 32 15 33 15 34 15 34 16 33 16 35 16 34 17 35 17 36 17 36 18 35 18 37 18 36 19 37 19 17 19 17 20 37 20 19 20 38 21 39 21 40 21 41 22 42 22 43 22 44 23 45 23 46 23 7 24 47 24 25 24 7 25 48 25 49 25 49 26 48 26 50 26 49 27 50 27 51 27 52 28 31 28 53 28 53 29 31 29 29 29 53 30 29 30 47 30 47 31 29 31 27 31 47 32 27 32 25 32 50 33 54 33 51 33 51 34 54 34 55 34 51 35 55 35 56 35 46 36 35 36 52 36 52 37 35 37 33 37 52 38 33 38 31 38 45 39 19 39 46 39 46 40 19 40 37 40 46 41 37 41 35 41 42 42 44 42 43 42 43 43 44 43 46 43 43 44 46 44 57 44 57 45 46 45 52 45 57 46 52 46 58 46 58 47 52 47 53 47 58 48 53 48 59 48 59 49 53 49 47 49 59 50 47 50 7 50 39 51 41 51 40 51 40 52 41 52 43 52 40 53 43 53 60 53 60 54 43 54 57 54 60 55 57 55 61 55 61 56 57 56 58 56 61 57 58 57 62 57 62 58 58 58 59 58 62 59 59 59 7 59 63 60 38 60 64 60 64 61 38 61 40 61 64 62 40 62 56 62 56 63 40 63 60 63 56 64 60 64 51 64 51 65 60 65 61 65 51 66 61 66 49 66 49 67 61 67 62 67 49 68 62 68 7 68 55 69 65 69 56 69 56 70 65 70 66 70 56 71 66 71 64 71 64 72 66 72 67 72 64 73 67 73 63 73 63 74 67 74 11 74 68 75 69 75 70 75 71 76 72 76 73 76 74 77 75 77 76 77 17 78 77 78 36 78 17 79 78 79 79 79 79 80 78 80 80 80 79 81 80 81 81 81 82 82 30 82 83 82 83 83 30 83 32 83 83 84 32 84 77 84 77 85 32 85 34 85 77 86 34 86 36 86 80 87 84 87 81 87 81 88 84 88 85 88 81 89 85 89 86 89 76 90 26 90 82 90 82 91 26 91 28 91 82 92 28 92 30 92 75 93 6 93 76 93 76 94 6 94 24 94 76 95 24 95 26 95 72 96 74 96 73 96 73 97 74 97 76 97 73 98 76 98 87 98 87 99 76 99 82 99 87 100 82 100 88 100 88 101 82 101 83 101 88 102 83 102 89 102 89 103 83 103 77 103 89 104 77 104 17 104 69 105 71 105 70 105 70 106 71 106 73 106 70 107 73 107 90 107 90 108 73 108 87 108 90 109 87 109 91 109 91 110 87 110 88 110 91 111 88 111 92 111 92 112 88 112 89 112 92 113 89 113 17 113 93 114 68 114 94 114 94 115 68 115 70 115 94 116 70 116 86 116 86 117 70 117 90 117 86 118 90 118 81 118 81 119 90 119 91 119 81 120 91 120 79 120 79 121 91 121 92 121 79 122 92 122 17 122 85 123 95 123 86 123 86 124 95 124 96 124 86 125 96 125 94 125 94 126 96 126 97 126 94 127 97 127 93 127 93 128 97 128 3 128 7 129 5 129 48 129 48 129 5 129 98 129 48 130 98 130 50 130 50 131 98 131 99 131 50 132 99 132 54 132 54 133 99 133 100 133 54 134 100 134 55 134 55 135 100 135 101 135 55 136 101 136 65 136 65 136 101 136 102 136 65 137 102 137 66 137 66 138 102 138 103 138 66 139 103 139 67 139 67 139 103 139 104 139 67 140 104 140 11 140 11 140 104 140 10 140 11 141 9 141 63 141 63 142 9 142 105 142 63 143 105 143 38 143 38 144 105 144 106 144 38 145 106 145 39 145 39 146 106 146 107 146 39 147 107 147 41 147 41 148 107 148 108 148 41 149 108 149 42 149 42 150 108 150 109 150 42 151 109 151 44 151 44 152 109 152 110 152 44 153 110 153 45 153 45 154 110 154 111 154 45 155 111 155 19 155 19 156 111 156 18 156 15 157 13 157 112 157 112 158 13 158 113 158 112 159 113 159 114 159 114 159 113 159 115 159 114 160 115 160 116 160 116 161 115 161 117 161 116 162 117 162 118 162 118 163 117 163 119 163 118 164 119 164 120 164 120 165 119 165 121 165 120 166 121 166 122 166 122 167 121 167 123 167 122 168 123 168 124 168 124 169 123 169 125 169 124 170 125 170 18 170 18 171 125 171 16 171 2 172 3 172 126 172 126 173 3 173 97 173 126 174 97 174 127 174 127 175 97 175 96 175 127 176 96 176 128 176 128 177 96 177 95 177 128 178 95 178 129 178 129 179 95 179 85 179 129 180 85 180 130 180 130 181 85 181 84 181 130 182 84 182 131 182 131 183 84 183 80 183 131 184 80 184 132 184 132 185 80 185 78 185 132 186 78 186 16 186 16 187 78 187 17 187 3 188 1 188 93 188 93 189 1 189 133 189 93 190 133 190 68 190 68 190 133 190 134 190 68 191 134 191 69 191 69 192 134 192 135 192 69 193 135 193 71 193 71 193 135 193 136 193 71 194 136 194 72 194 72 195 136 195 137 195 72 196 137 196 74 196 74 196 137 196 138 196 74 197 138 197 75 197 75 198 138 198 139 198 75 199 139 199 6 199 6 199 139 199 4 199 23 200 21 200 140 200 140 201 21 201 141 201 140 202 141 202 142 202 142 203 141 203 143 203 142 204 143 204 144 204 144 205 143 205 145 205 144 206 145 206 146 206 146 207 145 207 147 207 146 208 147 208 148 208 148 209 147 209 149 209 148 210 149 210 150 210 150 211 149 211 151 211 150 212 151 212 152 212 152 212 151 212 153 212 152 213 153 213 4 213 4 214 153 214 5 214 154 215 155 215 156 215 157 216 158 216 159 216 160 217 161 217 162 217 5 218 163 218 98 218 5 219 153 219 164 219 164 220 153 220 151 220 164 221 151 221 165 221 166 222 101 222 167 222 167 223 101 223 100 223 167 224 100 224 163 224 163 225 100 225 99 225 163 226 99 226 98 226 151 227 149 227 165 227 165 228 149 228 147 228 165 229 147 229 168 229 162 230 103 230 166 230 166 231 103 231 102 231 166 232 102 232 101 232 161 233 10 233 162 233 162 234 10 234 104 234 162 235 104 235 103 235 158 236 160 236 159 236 159 237 160 237 162 237 159 238 162 238 169 238 169 239 162 239 166 239 169 240 166 240 170 240 170 241 166 241 167 241 170 242 167 242 171 242 171 243 167 243 163 243 171 244 163 244 5 244 155 245 157 245 156 245 156 246 157 246 159 246 156 247 159 247 172 247 172 248 159 248 169 248 172 249 169 249 173 249 173 250 169 250 170 250 173 251 170 251 174 251 174 252 170 252 171 252 174 253 171 253 5 253 175 254 154 254 176 254 176 255 154 255 156 255 176 256 156 256 168 256 168 257 156 257 172 257 168 258 172 258 165 258 165 259 172 259 173 259 165 260 173 260 164 260 164 261 173 261 174 261 164 262 174 262 5 262 147 263 145 263 168 263 168 264 145 264 143 264 168 265 143 265 176 265 176 266 143 266 141 266 176 267 141 267 175 267 175 268 141 268 21 268 177 269 178 269 179 269 180 270 181 270 182 270 183 271 184 271 185 271 18 272 186 272 124 272 18 273 111 273 187 273 187 274 111 274 110 274 187 275 110 275 188 275 189 276 118 276 190 276 190 277 118 277 120 277 190 278 120 278 186 278 186 279 120 279 122 279 186 280 122 280 124 280 110 281 109 281 188 281 188 282 109 282 108 282 188 283 108 283 191 283 185 284 114 284 189 284 189 285 114 285 116 285 189 286 116 286 118 286 184 287 15 287 185 287 185 288 15 288 112 288 185 289 112 289 114 289 181 290 183 290 182 290 182 291 183 291 185 291 182 292 185 292 192 292 192 293 185 293 189 293 192 294 189 294 193 294 193 295 189 295 190 295 193 296 190 296 194 296 194 297 190 297 186 297 194 298 186 298 18 298 178 299 180 299 179 299 179 300 180 300 182 300 179 301 182 301 195 301 195 302 182 302 192 302 195 303 192 303 196 303 196 304 192 304 193 304 196 305 193 305 197 305 197 306 193 306 194 306 197 307 194 307 18 307 198 308 177 308 199 308 199 309 177 309 179 309 199 310 179 310 191 310 191 311 179 311 195 311 191 312 195 312 188 312 188 313 195 313 196 313 188 314 196 314 187 314 187 315 196 315 197 315 187 316 197 316 18 316 108 317 107 317 191 317 191 318 107 318 106 318 191 319 106 319 199 319 199 320 106 320 105 320 199 321 105 321 198 321 198 322 105 322 9 322 200 323 201 323 202 323 203 324 204 324 205 324 206 325 207 325 208 325 16 326 209 326 132 326 16 327 125 327 210 327 210 328 125 328 123 328 210 329 123 329 211 329 212 330 129 330 213 330 213 331 129 331 130 331 213 332 130 332 209 332 209 333 130 333 131 333 209 334 131 334 132 334 123 335 121 335 211 335 211 336 121 336 119 336 211 337 119 337 214 337 208 338 127 338 212 338 212 339 127 339 128 339 212 340 128 340 129 340 207 341 2 341 208 341 208 342 2 342 126 342 208 343 126 343 127 343 204 344 206 344 205 344 205 345 206 345 208 345 205 346 208 346 215 346 215 347 208 347 212 347 215 348 212 348 216 348 216 349 212 349 213 349 216 350 213 350 217 350 217 351 213 351 209 351 217 352 209 352 16 352 201 353 203 353 202 353 202 354 203 354 205 354 202 355 205 355 218 355 218 356 205 356 215 356 218 357 215 357 219 357 219 358 215 358 216 358 219 359 216 359 220 359 220 360 216 360 217 360 220 361 217 361 16 361 221 362 200 362 222 362 222 363 200 363 202 363 222 364 202 364 214 364 214 365 202 365 218 365 214 366 218 366 211 366 211 367 218 367 219 367 211 368 219 368 210 368 210 369 219 369 220 369 210 370 220 370 16 370 119 371 117 371 214 371 214 372 117 372 115 372 214 373 115 373 222 373 222 374 115 374 113 374 222 375 113 375 221 375 221 376 113 376 13 376 223 377 224 377 225 377 226 378 227 378 228 378 229 379 230 379 231 379 4 380 232 380 152 380 4 381 139 381 233 381 233 382 139 382 138 382 233 383 138 383 234 383 235 384 146 384 236 384 236 385 146 385 148 385 236 386 148 386 232 386 232 387 148 387 150 387 232 388 150 388 152 388 138 389 137 389 234 389 234 390 137 390 136 390 234 391 136 391 237 391 231 392 142 392 235 392 235 393 142 393 144 393 235 394 144 394 146 394 230 395 23 395 231 395 231 396 23 396 140 396 231 397 140 397 142 397 227 398 229 398 228 398 228 399 229 399 231 399 228 400 231 400 238 400 238 401 231 401 235 401 238 402 235 402 239 402 239 403 235 403 236 403 239 404 236 404 240 404 240 405 236 405 232 405 240 406 232 406 4 406 224 407 226 407 225 407 225 408 226 408 228 408 225 409 228 409 241 409 241 410 228 410 238 410 241 411 238 411 242 411 242 412 238 412 239 412 242 413 239 413 243 413 243 414 239 414 240 414 243 415 240 415 4 415 244 416 223 416 245 416 245 417 223 417 225 417 245 418 225 418 237 418 237 419 225 419 241 419 237 420 241 420 234 420 234 421 241 421 242 421 234 422 242 422 233 422 233 423 242 423 243 423 233 424 243 424 4 424 136 425 135 425 237 425 237 426 135 426 134 426 237 427 134 427 245 427 245 428 134 428 133 428 245 429 133 429 244 429 244 430 133 430 1 430 8 431 10 431 246 431 246 432 10 432 161 432 246 433 161 433 247 433 247 434 161 434 160 434 247 435 160 435 248 435 248 435 160 435 158 435 248 436 158 436 249 436 249 437 158 437 157 437 249 438 157 438 250 438 250 439 157 439 155 439 250 440 155 440 251 440 251 441 155 441 154 441 251 442 154 442 252 442 252 443 154 443 175 443 252 444 175 444 20 444 20 445 175 445 21 445 9 446 8 446 198 446 198 446 8 446 253 446 198 447 253 447 177 447 177 447 253 447 254 447 177 448 254 448 178 448 178 449 254 449 255 449 178 450 255 450 180 450 180 450 255 450 256 450 180 451 256 451 181 451 181 452 256 452 257 452 181 453 257 453 183 453 183 454 257 454 258 454 183 455 258 455 184 455 184 456 258 456 259 456 184 457 259 457 15 457 15 457 259 457 14 457 13 458 12 458 221 458 221 458 12 458 260 458 221 459 260 459 200 459 200 460 260 460 261 460 200 461 261 461 201 461 201 461 261 461 262 461 201 462 262 462 203 462 203 463 262 463 263 463 203 464 263 464 204 464 204 464 263 464 264 464 204 465 264 465 206 465 206 466 264 466 265 466 206 467 265 467 207 467 207 467 265 467 266 467 207 468 266 468 2 468 2 469 266 469 0 469 22 470 23 470 267 470 267 471 23 471 230 471 267 472 230 472 268 472 268 473 230 473 229 473 268 474 229 474 269 474 269 475 229 475 227 475 269 476 227 476 270 476 270 477 227 477 226 477 270 478 226 478 271 478 271 479 226 479 224 479 271 480 224 480 272 480 272 480 224 480 223 480 272 481 223 481 273 481 273 482 223 482 244 482 273 483 244 483 0 483 0 484 244 484 1 484 274 485 275 485 276 485 277 486 278 486 279 486 280 487 281 487 282 487 8 488 283 488 253 488 8 489 246 489 284 489 284 490 246 490 247 490 284 491 247 491 285 491 286 492 256 492 287 492 287 493 256 493 255 493 287 494 255 494 283 494 283 495 255 495 254 495 283 496 254 496 253 496 247 497 248 497 285 497 285 498 248 498 249 498 285 499 249 499 288 499 282 500 258 500 286 500 286 501 258 501 257 501 286 502 257 502 256 502 281 503 14 503 282 503 282 504 14 504 259 504 282 505 259 505 258 505 278 506 280 506 279 506 279 507 280 507 282 507 279 508 282 508 289 508 289 509 282 509 286 509 289 510 286 510 290 510 290 511 286 511 287 511 290 512 287 512 291 512 291 513 287 513 283 513 291 514 283 514 8 514 275 515 277 515 276 515 276 516 277 516 279 516 276 517 279 517 292 517 292 518 279 518 289 518 292 519 289 519 293 519 293 520 289 520 290 520 293 521 290 521 294 521 294 522 290 522 291 522 294 523 291 523 8 523 295 524 274 524 296 524 296 525 274 525 276 525 296 526 276 526 288 526 288 527 276 527 292 527 288 528 292 528 285 528 285 529 292 529 293 529 285 530 293 530 284 530 284 531 293 531 294 531 284 532 294 532 8 532 249 533 250 533 288 533 288 534 250 534 251 534 288 535 251 535 296 535 296 536 251 536 252 536 296 537 252 537 295 537 295 538 252 538 20 538 297 539 298 539 299 539 300 540 301 540 302 540 303 541 304 541 305 541 0 542 306 542 273 542 0 543 266 543 307 543 307 544 266 544 265 544 307 545 265 545 308 545 309 546 270 546 310 546 310 547 270 547 271 547 310 548 271 548 306 548 306 549 271 549 272 549 306 550 272 550 273 550 265 551 264 551 308 551 308 552 264 552 263 552 308 553 263 553 311 553 305 554 268 554 309 554 309 555 268 555 269 555 309 556 269 556 270 556 304 557 22 557 305 557 305 558 22 558 267 558 305 559 267 559 268 559 301 560 303 560 302 560 302 561 303 561 305 561 302 562 305 562 312 562 312 563 305 563 309 563 312 564 309 564 313 564 313 565 309 565 310 565 313 566 310 566 314 566 314 567 310 567 306 567 314 568 306 568 0 568 298 569 300 569 299 569 299 570 300 570 302 570 299 571 302 571 315 571 315 572 302 572 312 572 315 573 312 573 316 573 316 574 312 574 313 574 316 575 313 575 317 575 317 576 313 576 314 576 317 577 314 577 0 577 318 578 297 578 319 578 319 579 297 579 299 579 319 580 299 580 311 580 311 581 299 581 315 581 311 582 315 582 308 582 308 583 315 583 316 583 308 584 316 584 307 584 307 585 316 585 317 585 307 586 317 586 0 586 263 587 262 587 311 587 311 588 262 588 261 588 311 589 261 589 319 589 319 590 261 590 260 590 319 591 260 591 318 591 318 592 260 592 12 592 12 593 14 593 318 593 318 594 14 594 281 594 318 595 281 595 297 595 297 595 281 595 280 595 297 596 280 596 298 596 298 597 280 597 278 597 298 598 278 598 300 598 300 599 278 599 277 599 300 600 277 600 301 600 301 601 277 601 275 601 301 602 275 602 303 602 303 603 275 603 274 603 303 604 274 604 304 604 304 605 274 605 295 605 304 606 295 606 22 606 22 607 295 607 20 607 320 2 321 2 322 2 322 2 321 2 323 2 324 1 325 1 326 1 326 1 325 1 327 1 328 0 329 0 330 0 330 0 329 0 331 0 332 3 333 3 334 3 334 3 333 3 335 3 336 5 337 5 338 5 338 5 337 5 339 5 340 4 341 4 342 4 342 4 341 4 343 4 326 608 327 608 344 608 344 609 327 609 345 609 344 610 345 610 346 610 346 610 345 610 347 610 346 611 347 611 348 611 348 612 347 612 349 612 348 613 349 613 350 613 350 614 349 614 351 614 350 615 351 615 352 615 352 616 351 616 353 616 352 617 353 617 354 617 354 618 353 618 355 618 354 619 355 619 356 619 356 620 355 620 357 620 356 621 357 621 337 621 337 622 357 622 339 622 358 623 359 623 360 623 361 624 362 624 363 624 364 625 365 625 366 625 327 626 367 626 345 626 327 627 368 627 369 627 369 628 368 628 370 628 369 629 370 629 371 629 372 630 351 630 373 630 373 631 351 631 349 631 373 632 349 632 367 632 367 633 349 633 347 633 367 634 347 634 345 634 370 635 374 635 371 635 371 636 374 636 375 636 371 637 375 637 376 637 366 638 355 638 372 638 372 639 355 639 353 639 372 640 353 640 351 640 365 641 339 641 366 641 366 642 339 642 357 642 366 643 357 643 355 643 362 644 364 644 363 644 363 645 364 645 366 645 363 646 366 646 377 646 377 647 366 647 372 647 377 648 372 648 378 648 378 649 372 649 373 649 378 650 373 650 379 650 379 651 373 651 367 651 379 652 367 652 327 652 359 653 361 653 360 653 360 654 361 654 363 654 360 655 363 655 380 655 380 656 363 656 377 656 380 657 377 657 381 657 381 658 377 658 378 658 381 659 378 659 382 659 382 660 378 660 379 660 382 661 379 661 327 661 383 662 358 662 384 662 384 663 358 663 360 663 384 664 360 664 376 664 376 665 360 665 380 665 376 666 380 666 371 666 371 667 380 667 381 667 371 668 381 668 369 668 369 669 381 669 382 669 369 670 382 670 327 670 375 671 385 671 376 671 376 672 385 672 386 672 376 673 386 673 384 673 384 674 386 674 387 674 384 675 387 675 383 675 383 676 387 676 331 676 388 677 389 677 390 677 391 678 392 678 393 678 394 679 395 679 396 679 337 680 397 680 356 680 337 681 398 681 399 681 399 682 398 682 400 682 399 683 400 683 401 683 402 684 350 684 403 684 403 685 350 685 352 685 403 686 352 686 397 686 397 687 352 687 354 687 397 688 354 688 356 688 400 689 404 689 401 689 401 690 404 690 405 690 401 691 405 691 406 691 396 692 346 692 402 692 402 693 346 693 348 693 402 694 348 694 350 694 395 695 326 695 396 695 396 696 326 696 344 696 396 697 344 697 346 697 392 698 394 698 393 698 393 699 394 699 396 699 393 700 396 700 407 700 407 701 396 701 402 701 407 702 402 702 408 702 408 703 402 703 403 703 408 704 403 704 409 704 409 705 403 705 397 705 409 706 397 706 337 706 389 707 391 707 390 707 390 708 391 708 393 708 390 709 393 709 410 709 410 710 393 710 407 710 410 711 407 711 411 711 411 712 407 712 408 712 411 713 408 713 412 713 412 714 408 714 409 714 412 715 409 715 337 715 413 716 388 716 414 716 414 717 388 717 390 717 414 718 390 718 406 718 406 719 390 719 410 719 406 720 410 720 401 720 401 721 410 721 411 721 401 722 411 722 399 722 399 723 411 723 412 723 399 724 412 724 337 724 405 725 415 725 406 725 406 726 415 726 416 726 406 727 416 727 414 727 414 728 416 728 417 728 414 729 417 729 413 729 413 730 417 730 323 730 327 731 325 731 368 731 368 731 325 731 418 731 368 732 418 732 370 732 370 197 418 197 419 197 370 733 419 733 374 733 374 196 419 196 420 196 374 734 420 734 375 734 375 735 420 735 421 735 375 736 421 736 385 736 385 736 421 736 422 736 385 737 422 737 386 737 386 738 422 738 423 738 386 739 423 739 387 739 387 739 423 739 424 739 387 188 424 188 331 188 331 188 424 188 330 188 331 740 329 740 383 740 383 741 329 741 425 741 383 742 425 742 358 742 358 481 425 481 426 481 358 743 426 743 359 743 359 480 426 480 427 480 359 744 427 744 361 744 361 745 427 745 428 745 361 746 428 746 362 746 362 747 428 747 429 747 362 748 429 748 364 748 364 749 429 749 430 749 364 750 430 750 365 750 365 751 430 751 431 751 365 752 431 752 339 752 339 753 431 753 338 753 335 754 333 754 432 754 432 755 333 755 433 755 432 756 433 756 434 756 434 756 433 756 435 756 434 757 435 757 436 757 436 758 435 758 437 758 436 759 437 759 438 759 438 760 437 760 439 760 438 761 439 761 440 761 440 762 439 762 441 762 440 763 441 763 442 763 442 764 441 764 443 764 442 765 443 765 444 765 444 766 443 766 445 766 444 767 445 767 338 767 338 768 445 768 336 768 322 769 323 769 446 769 446 770 323 770 417 770 446 771 417 771 447 771 447 434 417 434 416 434 447 772 416 772 448 772 448 435 416 435 415 435 448 773 415 773 449 773 449 774 415 774 405 774 449 775 405 775 450 775 450 776 405 776 404 776 450 777 404 777 451 777 451 778 404 778 400 778 451 779 400 779 452 779 452 780 400 780 398 780 452 781 398 781 336 781 336 782 398 782 337 782 323 140 321 140 413 140 413 783 321 783 453 783 413 784 453 784 388 784 388 784 453 784 454 784 388 785 454 785 389 785 389 786 454 786 455 786 389 787 455 787 391 787 391 787 455 787 456 787 391 788 456 788 392 788 392 789 456 789 457 789 392 133 457 133 394 133 394 133 457 133 458 133 394 131 458 131 395 131 395 790 458 790 459 790 395 791 459 791 326 791 326 791 459 791 324 791 343 792 341 792 460 792 460 793 341 793 461 793 460 794 461 794 462 794 462 795 461 795 463 795 462 796 463 796 464 796 464 797 463 797 465 797 464 798 465 798 466 798 466 799 465 799 467 799 466 800 467 800 468 800 468 801 467 801 469 801 468 802 469 802 470 802 470 803 469 803 471 803 470 804 471 804 472 804 472 804 471 804 473 804 472 805 473 805 324 805 324 806 473 806 325 806 474 807 475 807 476 807 477 808 478 808 479 808 480 809 481 809 482 809 325 810 483 810 418 810 325 811 473 811 484 811 484 812 473 812 471 812 484 813 471 813 485 813 486 814 421 814 487 814 487 815 421 815 420 815 487 816 420 816 483 816 483 817 420 817 419 817 483 818 419 818 418 818 471 819 469 819 485 819 485 820 469 820 467 820 485 821 467 821 488 821 482 822 423 822 486 822 486 823 423 823 422 823 486 824 422 824 421 824 481 825 330 825 482 825 482 826 330 826 424 826 482 827 424 827 423 827 478 828 480 828 479 828 479 829 480 829 482 829 479 830 482 830 489 830 489 831 482 831 486 831 489 832 486 832 490 832 490 833 486 833 487 833 490 834 487 834 491 834 491 835 487 835 483 835 491 836 483 836 325 836 475 837 477 837 476 837 476 838 477 838 479 838 476 839 479 839 492 839 492 840 479 840 489 840 492 841 489 841 493 841 493 842 489 842 490 842 493 843 490 843 494 843 494 844 490 844 491 844 494 845 491 845 325 845 495 846 474 846 496 846 496 847 474 847 476 847 496 848 476 848 488 848 488 849 476 849 492 849 488 850 492 850 485 850 485 851 492 851 493 851 485 852 493 852 484 852 484 853 493 853 494 853 484 854 494 854 325 854 467 855 465 855 488 855 488 856 465 856 463 856 488 857 463 857 496 857 496 858 463 858 461 858 496 859 461 859 495 859 495 860 461 860 341 860 497 861 498 861 499 861 500 862 501 862 502 862 503 863 504 863 505 863 338 864 506 864 444 864 338 865 431 865 507 865 507 866 431 866 430 866 507 867 430 867 508 867 509 868 438 868 510 868 510 869 438 869 440 869 510 870 440 870 506 870 506 871 440 871 442 871 506 872 442 872 444 872 430 873 429 873 508 873 508 874 429 874 428 874 508 875 428 875 511 875 505 876 434 876 509 876 509 877 434 877 436 877 509 878 436 878 438 878 504 879 335 879 505 879 505 880 335 880 432 880 505 881 432 881 434 881 501 882 503 882 502 882 502 883 503 883 505 883 502 884 505 884 512 884 512 885 505 885 509 885 512 886 509 886 513 886 513 887 509 887 510 887 513 888 510 888 514 888 514 889 510 889 506 889 514 890 506 890 338 890 498 891 500 891 499 891 499 892 500 892 502 892 499 893 502 893 515 893 515 894 502 894 512 894 515 895 512 895 516 895 516 896 512 896 513 896 516 897 513 897 517 897 517 898 513 898 514 898 517 899 514 899 338 899 518 900 497 900 519 900 519 901 497 901 499 901 519 902 499 902 511 902 511 903 499 903 515 903 511 904 515 904 508 904 508 905 515 905 516 905 508 906 516 906 507 906 507 907 516 907 517 907 507 908 517 908 338 908 428 909 427 909 511 909 511 910 427 910 426 910 511 911 426 911 519 911 519 912 426 912 425 912 519 913 425 913 518 913 518 914 425 914 329 914 520 915 521 915 522 915 523 916 524 916 525 916 526 917 527 917 528 917 336 918 529 918 452 918 336 919 445 919 530 919 530 920 445 920 443 920 530 921 443 921 531 921 532 922 449 922 533 922 533 923 449 923 450 923 533 924 450 924 529 924 529 925 450 925 451 925 529 926 451 926 452 926 443 927 441 927 531 927 531 928 441 928 439 928 531 929 439 929 534 929 528 930 447 930 532 930 532 931 447 931 448 931 532 932 448 932 449 932 527 933 322 933 528 933 528 934 322 934 446 934 528 935 446 935 447 935 524 936 526 936 525 936 525 937 526 937 528 937 525 938 528 938 535 938 535 939 528 939 532 939 535 940 532 940 536 940 536 941 532 941 533 941 536 942 533 942 537 942 537 943 533 943 529 943 537 944 529 944 336 944 521 945 523 945 522 945 522 946 523 946 525 946 522 947 525 947 538 947 538 948 525 948 535 948 538 949 535 949 539 949 539 950 535 950 536 950 539 951 536 951 540 951 540 952 536 952 537 952 540 953 537 953 336 953 541 954 520 954 542 954 542 955 520 955 522 955 542 956 522 956 534 956 534 957 522 957 538 957 534 958 538 958 531 958 531 959 538 959 539 959 531 960 539 960 530 960 530 961 539 961 540 961 530 962 540 962 336 962 439 963 437 963 534 963 534 964 437 964 435 964 534 965 435 965 542 965 542 966 435 966 433 966 542 967 433 967 541 967 541 968 433 968 333 968 543 969 544 969 545 969 546 970 547 970 548 970 549 971 550 971 551 971 324 972 552 972 472 972 324 973 459 973 553 973 553 974 459 974 458 974 553 975 458 975 554 975 555 976 466 976 556 976 556 977 466 977 468 977 556 978 468 978 552 978 552 979 468 979 470 979 552 980 470 980 472 980 458 981 457 981 554 981 554 982 457 982 456 982 554 983 456 983 557 983 551 984 462 984 555 984 555 985 462 985 464 985 555 986 464 986 466 986 550 987 343 987 551 987 551 988 343 988 460 988 551 989 460 989 462 989 547 990 549 990 548 990 548 991 549 991 551 991 548 992 551 992 558 992 558 993 551 993 555 993 558 994 555 994 559 994 559 995 555 995 556 995 559 996 556 996 560 996 560 997 556 997 552 997 560 998 552 998 324 998 544 999 546 999 545 999 545 1000 546 1000 548 1000 545 1001 548 1001 561 1001 561 1002 548 1002 558 1002 561 1003 558 1003 562 1003 562 1004 558 1004 559 1004 562 1005 559 1005 563 1005 563 1006 559 1006 560 1006 563 1007 560 1007 324 1007 564 1008 543 1008 565 1008 565 1009 543 1009 545 1009 565 1010 545 1010 557 1010 557 1011 545 1011 561 1011 557 1012 561 1012 554 1012 554 1013 561 1013 562 1013 554 1014 562 1014 553 1014 553 1015 562 1015 563 1015 553 1016 563 1016 324 1016 456 1017 455 1017 557 1017 557 1018 455 1018 454 1018 557 1019 454 1019 565 1019 565 1020 454 1020 453 1020 565 1021 453 1021 564 1021 564 1022 453 1022 321 1022 328 1023 330 1023 566 1023 566 1024 330 1024 481 1024 566 1025 481 1025 567 1025 567 175 481 175 480 175 567 177 480 177 568 177 568 177 480 177 478 177 568 1026 478 1026 569 1026 569 1027 478 1027 477 1027 569 1028 477 1028 570 1028 570 1029 477 1029 475 1029 570 1030 475 1030 571 1030 571 1031 475 1031 474 1031 571 1032 474 1032 572 1032 572 1033 474 1033 495 1033 572 1034 495 1034 340 1034 340 1035 495 1035 341 1035 329 469 328 469 518 469 518 469 328 469 573 469 518 1036 573 1036 497 1036 497 1036 573 1036 574 1036 497 1037 574 1037 498 1037 498 1038 574 1038 575 1038 498 1039 575 1039 500 1039 500 1039 575 1039 576 1039 500 1040 576 1040 501 1040 501 1041 576 1041 577 1041 501 461 577 461 503 461 503 1042 577 1042 578 1042 503 460 578 460 504 460 504 1043 578 1043 579 1043 504 1044 579 1044 335 1044 335 1044 579 1044 334 1044 333 1045 332 1045 541 1045 541 1045 332 1045 580 1045 541 1046 580 1046 520 1046 520 455 580 455 581 455 520 453 581 453 521 453 521 453 581 453 582 453 521 1047 582 1047 523 1047 523 1048 582 1048 583 1048 523 1049 583 1049 524 1049 524 1049 583 1049 584 1049 524 1050 584 1050 526 1050 526 1051 584 1051 585 1051 526 1052 585 1052 527 1052 527 1052 585 1052 586 1052 527 1053 586 1053 322 1053 322 446 586 446 320 446 342 1054 343 1054 587 1054 587 1055 343 1055 550 1055 587 1056 550 1056 588 1056 588 1057 550 1057 549 1057 588 1058 549 1058 589 1058 589 1059 549 1059 547 1059 589 1060 547 1060 590 1060 590 1061 547 1061 546 1061 590 1062 546 1062 591 1062 591 1063 546 1063 544 1063 591 146 544 146 592 146 592 146 544 146 543 146 592 144 543 144 593 144 593 1064 543 1064 564 1064 593 1065 564 1065 320 1065 320 1066 564 1066 321 1066 594 1067 595 1067 596 1067 597 1068 598 1068 599 1068 600 1069 601 1069 602 1069 328 1070 603 1070 573 1070 328 1071 566 1071 604 1071 604 1072 566 1072 567 1072 604 1073 567 1073 605 1073 606 1074 576 1074 607 1074 607 1075 576 1075 575 1075 607 1076 575 1076 603 1076 603 1077 575 1077 574 1077 603 1078 574 1078 573 1078 567 1079 568 1079 605 1079 605 1080 568 1080 569 1080 605 1081 569 1081 608 1081 602 1082 578 1082 606 1082 606 1083 578 1083 577 1083 606 1084 577 1084 576 1084 601 1085 334 1085 602 1085 602 1086 334 1086 579 1086 602 1087 579 1087 578 1087 598 1088 600 1088 599 1088 599 1089 600 1089 602 1089 599 1090 602 1090 609 1090 609 1091 602 1091 606 1091 609 1092 606 1092 610 1092 610 1093 606 1093 607 1093 610 1094 607 1094 611 1094 611 1095 607 1095 603 1095 611 1096 603 1096 328 1096 595 1097 597 1097 596 1097 596 1098 597 1098 599 1098 596 1099 599 1099 612 1099 612 1100 599 1100 609 1100 612 1101 609 1101 613 1101 613 1102 609 1102 610 1102 613 1103 610 1103 614 1103 614 1104 610 1104 611 1104 614 1105 611 1105 328 1105 615 1106 594 1106 616 1106 616 1107 594 1107 596 1107 616 1108 596 1108 608 1108 608 1109 596 1109 612 1109 608 1110 612 1110 605 1110 605 1111 612 1111 613 1111 605 1112 613 1112 604 1112 604 1113 613 1113 614 1113 604 1114 614 1114 328 1114 569 1115 570 1115 608 1115 608 1116 570 1116 571 1116 608 1117 571 1117 616 1117 616 1118 571 1118 572 1118 616 1119 572 1119 615 1119 615 1120 572 1120 340 1120 617 1121 618 1121 619 1121 620 1122 621 1122 622 1122 623 1123 624 1123 625 1123 320 1124 626 1124 593 1124 320 1125 586 1125 627 1125 627 1126 586 1126 585 1126 627 1127 585 1127 628 1127 629 1128 590 1128 630 1128 630 1129 590 1129 591 1129 630 1130 591 1130 626 1130 626 1131 591 1131 592 1131 626 1132 592 1132 593 1132 585 1133 584 1133 628 1133 628 1134 584 1134 583 1134 628 1135 583 1135 631 1135 625 1136 588 1136 629 1136 629 1137 588 1137 589 1137 629 1138 589 1138 590 1138 624 1139 342 1139 625 1139 625 1140 342 1140 587 1140 625 1141 587 1141 588 1141 621 1142 623 1142 622 1142 622 1143 623 1143 625 1143 622 1144 625 1144 632 1144 632 1145 625 1145 629 1145 632 1146 629 1146 633 1146 633 1147 629 1147 630 1147 633 1148 630 1148 634 1148 634 1149 630 1149 626 1149 634 1150 626 1150 320 1150 618 1151 620 1151 619 1151 619 1152 620 1152 622 1152 619 1153 622 1153 635 1153 635 1154 622 1154 632 1154 635 1155 632 1155 636 1155 636 1156 632 1156 633 1156 636 1157 633 1157 637 1157 637 1158 633 1158 634 1158 637 1159 634 1159 320 1159 638 1160 617 1160 639 1160 639 1161 617 1161 619 1161 639 1162 619 1162 631 1162 631 1163 619 1163 635 1163 631 1164 635 1164 628 1164 628 1165 635 1165 636 1165 628 1166 636 1166 627 1166 627 1167 636 1167 637 1167 627 1168 637 1168 320 1168 583 1169 582 1169 631 1169 631 1170 582 1170 581 1170 631 1171 581 1171 639 1171 639 1172 581 1172 580 1172 639 1173 580 1173 638 1173 638 1174 580 1174 332 1174 332 1175 334 1175 638 1175 638 1176 334 1176 601 1176 638 1177 601 1177 617 1177 617 1177 601 1177 600 1177 617 1178 600 1178 618 1178 618 1179 600 1179 598 1179 618 1180 598 1180 620 1180 620 1181 598 1181 597 1181 620 1182 597 1182 621 1182 621 1183 597 1183 595 1183 621 1184 595 1184 623 1184 623 1185 595 1185 594 1185 623 1186 594 1186 624 1186 624 1187 594 1187 615 1187 624 1188 615 1188 342 1188 342 1189 615 1189 340 1189</p>
        </triangles>
      </mesh>
    </geometry>
  </library_geometries>
  <library_visual_scenes>
    <visual_scene id="Scene" name="Scene">
      <node id="batteries" name="batteries" type="NODE">
        <matrix sid="transform">1 0 0 0 0 1 0 0 0 0 1 0 0 0 0 1</matrix>
        <instance_geometry url="#batteries-mesh" name="batteries">
          <bind_material>
            <technique_common>
              <instance_material symbol="Material_003-material" target="#Material_003-material"/>
            </technique_common>
          </bind_material>
        </instance_geometry>
      </node>
      <node id="Camera" name="Camera" type="NODE">
        <matrix sid="transform">0.6859207 -0.3240135 0.6515582 7.358891 0.7276763 0.3054208 -0.6141704 -6.925791 0 0.8953956 0.4452714 4.958309 0 0 0 1</matrix>
        <instance_camera url="#Camera-camera"/>
      </node>
      <node id="Light" name="Light" type="NODE">
        <matrix sid="transform">-0.2908646 -0.7711008 0.5663932 4.076245 0.9551712 -0.1998834 0.2183912 1.005454 -0.05518906 0.6045247 0.7946723 5.903862 0 0 0 1</matrix>
        <instance_light url="#Light-light"/>
      </node>
    </visual_scene>
  </library_visual_scenes>
  <scene>
    <instance_visual_scene url="#Scene"/>
  </scene>
</COLLADA>